<?xml version="1.0" standalone="no"?>
<!DOCTYPE svg PUBLIC "-//W3C//DTD SVG 1.1//EN" "http://www.w3.org/Graphics/SVG/1.1/DTD/svg11.dtd" >
<svg xmlns="http://www.w3.org/2000/svg">
<metadata>
This is a custom SVG webfont generated by Font Squirrel.
Copyright   : Copyright 19891990 URW Unternehmensberatunge and The Compa 
</metadata>
<defs>
<font id="FrutigerExtBoldRegular" horiz-adv-x="1261" >
<font-face units-per-em="2048" ascent="1638" descent="-410" />
<missing-glyph horiz-adv-x="655" />
<glyph unicode=" "  horiz-adv-x="655" />
<glyph unicode="&#x09;" horiz-adv-x="655" />
<glyph unicode="&#xa0;" horiz-adv-x="655" />
<glyph unicode="!" horiz-adv-x="851" d="M307 1366h352l-49 -973h-252zM330 0v252h311v-252h-311z" />
<glyph unicode="&#x22;" horiz-adv-x="958" d="M98 1475h332l-55 -549h-221zM530 1475h330l-55 -549h-221z" />
<glyph unicode="#" d="M12 377l37 184h213l53 273h-211l37 184h213l70 348h242l-70 -348h231l70 348h244l-72 -348h213l-39 -184h-211l-55 -273h213l-39 -184h-211l-76 -377h-241l73 377h-229l-78 -377h-242l76 377h-211zM504 561h231l56 273h-232z" />
<glyph unicode="$" d="M90 989q0 188 146.5 277.5t341.5 103.5v176h122v-170q47 0 93.5 -3t93.5 -9q45 -4 92 -12.5t92 -20.5l-29 -229q-68 27 -142.5 41t-149.5 20q-12 0 -24.5 1t-25.5 1v-344q4 -2 8.5 -3t10.5 -1q172 -51 315.5 -137t143.5 -272q0 -195 -139.5 -296.5t-350.5 -119.5v-174 h-125v166q-88 2 -171 8t-165 22q-29 6 -55.5 13.5t-54.5 15.5l28 248q90 -37 185.5 -62.5t193.5 -25.5h12q5 0 9 2h9h9v379q-2 0 -3 1t-3 1q-174 53 -320.5 131.5t-146.5 271.5zM393 1014q0 -66 51.5 -99.5t112.5 -54.5q4 -2 9 -3t12 -3v311q-6 -2 -11.5 -3t-9.5 -1 q-61 -16 -112.5 -51t-51.5 -96zM688 209q72 16 127 59t55 113q0 74 -56 110.5t-126 61.5v-344z" />
<glyph unicode="%" horiz-adv-x="1705" d="M104 991v17v16v16v17q6 119 66.5 219t228.5 100t229.5 -100t67.5 -219v-17v-16v-16v-17q-6 -119 -67.5 -219t-229.5 -100q-164 0 -226.5 100t-68.5 219zM285 1008q0 -18 1 -42t3 -48q8 -49 31.5 -91.5t78.5 -42.5t80 42t31 92q4 27 5 53t1 45v8q0 18 -1 48t-5 61 q-8 49 -31.5 91t-79.5 42q-55 0 -78.5 -46t-29.5 -102q-4 -31 -5 -60.5t-1 -49.5zM334 -63l893 1493h153l-891 -1493h-155zM1016 313v14v13v18v19q8 119 69.5 218t223.5 99q170 0 231.5 -102.5t65.5 -224.5v-14v-13v-13v-14q-4 -123 -64.5 -222t-232.5 -99q-168 0 -227.5 99 t-65.5 222zM1194 326q0 -18 1 -42t3 -48q8 -49 31.5 -91.5t79.5 -42.5q55 0 79.5 42t30.5 92q4 27 5 53t1 45v8q0 18 -1 47t-5 60q-8 49 -31.5 91t-78.5 42q-53 0 -77 -42t-32 -91q-4 -31 -5 -60t-1 -47v-16z" />
<glyph unicode="&#x26;" horiz-adv-x="1638" d="M139 383q0 147 89 234.5t239 136.5q-80 63 -145.5 143t-65.5 178q0 150 124 222.5t273 88.5q23 2 44.5 3.5t43.5 1.5q172 0 309.5 -77t137.5 -241q0 -131 -97.5 -212t-213.5 -140l299 -281q51 70 71.5 144.5t24.5 156.5h270q-6 -137 -51 -248.5t-145 -218.5l276 -274 h-379l-110 111q-90 -59 -193.5 -97.5t-222.5 -38.5h-5h-7q-211 2 -388.5 101.5t-177.5 306.5zM451 383q0 -92 83.5 -152.5t184.5 -60.5q74 0 142.5 26.5t125.5 65.5l-356 342q-70 -39 -125 -91t-55 -130zM551 1063q0 -45 32.5 -85t71.5 -73q12 -10 24.5 -19t22.5 -20 q14 6 30 13.5t32 17.5q55 29 102 72t47 100q0 61 -54 95t-118 36h-3h-3h-5h-7q-63 -4 -117.5 -39t-54.5 -98z" />
<glyph unicode="'" horiz-adv-x="530" d="M98 1475h332l-55 -549h-221z" />
<glyph unicode="(" horiz-adv-x="835" d="M96 530q0 260 101.5 493.5t255.5 451.5h284q-141 -213 -236 -448.5t-95 -485.5q0 -238 77.5 -447t196.5 -413q14 -23 28.5 -46.5t28.5 -48.5v-2h-284q-31 45 -58.5 87t-54.5 83q-113 182 -178.5 368.5t-65.5 407.5z" />
<glyph unicode=")" horiz-adv-x="837" d="M98 -416q47 80 90 154t80 147q74 152 118 310.5t44 345.5q0 250 -95 486.5t-237 447.5h285q158 -221 257 -450.5t99 -494.5q0 -221 -65.5 -407t-177.5 -369q-27 -41 -54.5 -83t-58.5 -85z" />
<glyph unicode="*" d="M172 1110l74 197l303 -119l-31 287h232l-31 -287l301 110l70 -188l-320 -63l217 -211l-190 -119l-166 246l-172 -246l-191 119l224 211z" />
<glyph unicode="+" d="M80 621v178h440v375h217v-375h443v-178h-443v-375h-217v375h-440z" />
<glyph unicode="," horiz-adv-x="628" d="M49 -221l141 491h322l-199 -491h-264z" />
<glyph unicode="-" horiz-adv-x="575" d="M0 403v220h575v-220h-575z" />
<glyph unicode="." horiz-adv-x="628" d="M156 0v268h319v-268h-319z" />
<glyph unicode="/" horiz-adv-x="1026" d="M-82 -416l766 1891h248l-762 -1891h-252z" />
<glyph unicode="0" d="M82 680q0 39 2 78t6 80q25 205 140.5 376.5t400.5 171.5t399.5 -172t138.5 -376q4 -41 6.5 -80t2.5 -78q0 -35 -1 -70t-3 -71q-8 -100 -36 -198.5t-96 -182.5q-66 -86 -174 -131t-223 -47h-7h-7q-293 0 -407.5 175t-135.5 386q-4 35 -5 69.5t-1 69.5zM399 674 q0 -39 2 -97.5t13 -119.5q14 -104 62 -189.5t155 -85.5q106 0 153 86t64 189q8 59 10 114.5t2 94.5v16q0 39 -2 99.5t-12 123.5q-16 104 -64.5 190.5t-150.5 86.5q-106 0 -154.5 -88t-62.5 -195q-10 -63 -12.5 -123.5t-2.5 -101.5z" />
<glyph unicode="1" d="M141 1049l469 317h275v-1366h-316v1065l-266 -197z" />
<glyph unicode="2" d="M92 0v229q53 41 133 104.5t166 137.5q51 45 100.5 92t94.5 94q76 84 127 165t51 147q0 92 -69.5 144t-172.5 52q-100 0 -195.5 -32.5t-179.5 -81.5l-24 241q113 43 231.5 68.5t245.5 25.5q203 0 351.5 -97t148.5 -290q0 -55 -19.5 -114.5t-54.5 -118.5 q-55 -96 -137 -188.5t-170 -174.5q-59 -55 -115.5 -102t-105.5 -86l647 4v-219h-1053z" />
<glyph unicode="3" d="M98 27l19 235q84 -33 173 -51t181 -18q16 0 33.5 1t36.5 3q96 10 177 55t81 143q0 100 -82 141.5t-180 53.5q-35 4 -69 5t-65 1q-27 0 -53 -1t-51 -3v223q25 -2 49 -2h49q31 0 67 2t73 6q96 12 175 53t79 136q0 74 -60.5 109.5t-134.5 45.5q-20 4 -39.5 5t-38.5 1 q-16 0 -33.5 -1t-33.5 -1q-76 -6 -150 -22.5t-141 -46.5l-19 225q106 29 213 45t217 16q209 0 377 -77.5t168 -284.5q0 -113 -83 -200t-210 -107q4 -2 9.5 -3t11.5 -3q35 -8 68.5 -18.5t62.5 -28.5q68 -39 104.5 -104.5t46.5 -135.5q2 -14 3 -28.5t1 -28.5 q0 -184 -154.5 -273.5t-340.5 -107.5q-31 -2 -60.5 -4t-60.5 -2q-106 0 -210 10t-206 37z" />
<glyph unicode="4" d="M33 276v232l583 858h404v-881h203v-209h-203v-276h-315v276h-672zM319 485h392l8 570q0 12 1 23.5t3 23.5q0 12 3 23.5t5 23.5q-2 -6 -6 -13.5t-6 -13.5q-6 -14 -12.5 -27.5t-14.5 -25.5z" />
<glyph unicode="5" d="M160 20l8 250q76 -33 157 -51t164 -18q127 0 230.5 52t103.5 177q0 119 -99 174t-218 62q-8 2 -19 2h-18q-55 0 -108.5 -6.5t-106.5 -16.5q-16 -4 -33.5 -8t-36.5 -8l15 729h911v-213h-612l-11 -271q10 0 19.5 1.5t17.5 1.5q18 0 38 1t36 1q236 0 399.5 -112t163.5 -329 q0 -240 -189.5 -349t-439.5 -109q-41 0 -86 2t-90 6q-51 4 -102 12t-94 20z" />
<glyph unicode="6" d="M100 598q0 299 123 543.5t535 244.5q70 0 136.5 -9t133.5 -23q16 -2 33 -6l33 -9l-41 -221q-61 27 -126 41.5t-132 14.5q-217 0 -295 -126t-90 -286q59 72 137 102.5t178 30.5q223 0 337 -141.5t114 -317.5q0 -213 -140.5 -334.5t-386.5 -121.5q-324 0 -436.5 188 t-112.5 430zM428 444q0 -14 1 -29.5t5 -29.5q12 -76 63.5 -139.5t149.5 -63.5q94 0 143.5 59.5t61.5 133.5q4 14 5 28.5t1 28.5v18q0 9 -2 17q-8 82 -61.5 149.5t-157.5 67.5q-98 0 -147.5 -61.5t-59.5 -135.5q0 -12 -1 -22.5t-1 -20.5z" />
<glyph unicode="7" d="M121 1147v211h1022v-211l-551 -1147h-350l585 1147h-706z" />
<glyph unicode="8" d="M82 362q0 125 77 223.5t220 127.5q-123 31 -195.5 115.5t-72.5 197.5q0 186 156.5 271t342.5 89h11h8h13h15q178 -6 328 -82.5t150 -254.5q0 -113 -74 -195t-193 -117q150 -35 231 -130t81 -230q0 -205 -164 -301t-377 -96h-16h-19q-195 8 -358.5 98.5t-163.5 283.5z M399 377q0 -88 70 -144.5t170 -56.5q98 0 160.5 51.5t62.5 139.5q0 106 -80 155t-182 80q-82 -33 -141.5 -86t-59.5 -139zM418 1030q0 -78 59.5 -121t130.5 -71q12 -4 25.5 -9.5t25.5 -9.5q70 33 122.5 80t52.5 123q0 80 -59.5 125t-143.5 45q-82 0 -147.5 -43t-65.5 -119z " />
<glyph unicode="9" d="M82 926q0 219 140 339.5t390 120.5q319 0 433 -187t114 -431v-42q0 -22 -2 -42q-10 -264 -136 -484t-501 -220q-33 0 -66.5 1t-66.5 5q-55 4 -110.5 13t-108.5 24l37 223q61 -25 125.5 -40.5t134.5 -15.5q211 0 288.5 127t94.5 279q0 6 1 10t1 8q-47 -74 -126 -108.5 t-175 -34.5q-227 0 -347 134.5t-120 320.5zM399 910q0 -7 2 -13q8 -80 63.5 -146.5t160.5 -66.5q96 0 145 61.5t57 135.5q2 8 2 17v17q0 18 -2 37t-6 39q-14 72 -63 131.5t-142 59.5q-100 0 -150 -64.5t-63 -140.5q-2 -14 -3 -27.5t-1 -25.5v-14z" />
<glyph unicode=":" horiz-adv-x="628" d="M156 0v268h319v-268h-319zM156 745v269h319v-269h-319z" />
<glyph unicode=";" horiz-adv-x="628" d="M49 -221l141 491h324l-201 -491h-264zM195 745v269h321v-269h-321z" />
<glyph unicode="&#x3c;" horiz-adv-x="1177" d="M78 588v217l1020 450v-256l-705 -303l705 -303v-256z" />
<glyph unicode="=" d="M80 465v178h1100v-178h-1100zM80 778v178h1100v-178h-1100z" />
<glyph unicode="&#x3e;" horiz-adv-x="1177" d="M80 135v256l704 303l-704 305v254l1020 -450v-217z" />
<glyph unicode="?" horiz-adv-x="1196" d="M176 1321q109 33 221.5 50.5t227.5 17.5h21h22q174 -8 319.5 -89t145.5 -260q0 -102 -55.5 -175.5t-125.5 -143.5l-5 -5l-5 -5q-68 -68 -126 -142.5t-64 -179.5h-271q0 86 12.5 143.5t47.5 108.5q18 31 46.5 62.5t69.5 68.5q6 6 12.5 11t12.5 12q45 45 83 98t38 115 q0 80 -67.5 118.5t-149.5 44.5q-8 2 -18 3h-17q-94 0 -179 -22t-169 -54zM459 0v254h311v-254h-311z" />
<glyph unicode="@" horiz-adv-x="1810" d="M113 684q0 291 245.5 501t579.5 210q324 0 541 -173t217 -460q0 -33 -7.5 -71t-19.5 -75q-39 -115 -132 -210t-230 -95q-61 0 -113.5 31t-69.5 82q-47 -57 -119.5 -90t-150.5 -39h-13h-14q-139 0 -232 92t-101 209v16q0 8 2 17q10 152 121.5 276.5t300.5 124.5h15 q7 0 15 -2q57 -4 109.5 -29.5t83.5 -68.5l18 80l205 -2l-88 -394q-2 -8 -3 -17t-3 -17t-4 -17.5t-4 -17.5v-15q0 -8 2 -16q2 -20 13 -37.5t40 -17.5q59 0 101 54t65 120q16 41 23 81t7 64q0 219 -162.5 337t-406.5 118q-254 0 -442.5 -162t-188.5 -387q0 -236 163 -394.5 t442 -158.5q123 0 241.5 15.5t233.5 48.5l47 -162q-104 -31 -214 -44.5t-220 -15.5q-23 -2 -44 -2h-44q-350 0 -577.5 206t-227.5 507zM731 623q0 -57 42 -102.5t112 -45.5q84 0 132 54.5t64 117.5l4 29q2 14 2 29q-2 53 -42.5 94t-106.5 41q-84 0 -137 -56.5t-66 -124.5 q-2 -8 -3 -17t-1 -19z" />
<glyph unicode="A" horiz-adv-x="1638" d="M25 0l612 1366h352l629 -1366h-346l-137 311h-650l-135 -311h-325zM582 535h456l-202 483q-6 14 -11.5 29.5t-9.5 29.5q-2 8 -5 15.5t-5 15.5l-8 -29q-4 -14 -9 -26l-8 -29q-4 -14 -10 -29z" />
<glyph unicode="B" horiz-adv-x="1417" d="M190 0v1366h502h37q18 0 39 -2q178 -8 326.5 -80t148.5 -262q0 -137 -81 -210t-226 -99q158 -16 261 -102.5t103 -233.5q0 -96 -53 -178t-149 -131q-100 -51 -210 -59.5t-222 -8.5h-476zM508 209h154h24q12 0 25 2q102 6 188 48t86 149q0 113 -92 156.5t-203 43.5h-3h-3 h-176v-399zM508 813h151h14h13q90 4 166 39t76 129q0 102 -78 138t-180 36h-162v-342z" />
<glyph unicode="C" horiz-adv-x="1386" d="M115 670q0 340 225 523t608 183q84 0 163 -11t157 -32q14 -4 29.5 -8t31.5 -8l-26 -234q-78 37 -163 55.5t-175 18.5q-233 0 -372.5 -126t-139.5 -329q0 -211 145 -347t393 -136h29q14 0 29 2q70 4 139 18.5t135 36.5l12 -241q-88 -20 -177 -31.5t-181 -11.5 q-367 0 -614.5 169t-247.5 509z" />
<glyph unicode="D" horiz-adv-x="1642" d="M188 0v1366h359q53 0 108.5 -1t112.5 -5q127 -6 250 -34t227 -91q162 -98 222.5 -244.5t60.5 -310.5q0 -160 -65.5 -309.5t-219.5 -245.5q-94 -59 -206.5 -86t-227.5 -35q-43 -2 -84 -3t-82 -1h-455zM506 211h13h13h8h7q10 -2 20 -2h19q270 0 437 116.5t167 364.5v7v5 q-4 115 -62.5 219.5t-173.5 163.5q-66 35 -141.5 48.5t-153.5 17.5q-31 0 -60.5 1t-57.5 1h-18h-17v-942z" />
<glyph unicode="E" horiz-adv-x="1265" d="M188 0v1366h930v-225h-612v-330h561v-223h-561v-365h622v-223h-940z" />
<glyph unicode="F" horiz-adv-x="1157" d="M188 0v1366h873v-225h-555v-324h532v-225h-530v-592h-320z" />
<glyph unicode="G" horiz-adv-x="1644" d="M113 686q0 354 260 522t639 168q109 0 216 -13t210 -42l-23 -242q-96 39 -200.5 58.5t-210.5 19.5q-244 0 -398.5 -119.5t-154.5 -341.5q0 -205 139 -346t387 -141q53 0 102 7t99 22v331h-334v226h635v-734q-104 -33 -216 -49t-225 -18q-16 -2 -32 -2h-33 q-389 0 -624.5 168t-235.5 526z" />
<glyph unicode="H" horiz-adv-x="1636" d="M188 0v1366h318v-555h627v555h315v-1366h-315v588h-627v-588h-318z" />
<glyph unicode="I" horiz-adv-x="724" d="M203 0v1366h317v-1366h-317z" />
<glyph unicode="J" horiz-adv-x="890" d="M33 16l8 234q12 -2 23.5 -5t23.5 -5q23 -4 46.5 -7.5t47.5 -3.5q127 0 166 70t39 162v905h315v-932q0 -193 -92 -318.5t-346 -125.5q-57 0 -115.5 7t-115.5 19z" />
<glyph unicode="K" horiz-adv-x="1513" d="M190 0v1366h318v-485q0 -27 -1 -54.5t-5 -54.5q4 6 9 12.5t11 10.5q4 6 9.5 12t9.5 12q10 12 20 23.5t23 23.5l489 500h385l-643 -631l678 -735h-410l-508 563q-20 23 -38.5 45.5t-34.5 44.5q2 -14 3 -29.5t1 -29.5q2 -16 2 -31v-31v-532h-318z" />
<glyph unicode="L" horiz-adv-x="1159" d="M188 0v1366h318v-1143h612v-223h-930z" />
<glyph unicode="M" horiz-adv-x="2156" d="M188 0v1366h502l285 -717q33 -82 58.5 -166t43.5 -170q16 72 36 140.5t46 136.5l301 776h508v-1366h-317v807q4 92 9 184t11 185h-8q-10 -35 -21.5 -71t-25.5 -71l-402 -1034h-290l-340 854q-31 80 -58.5 160t-50.5 162h-8q6 -45 10 -90.5t6 -88.5q4 -45 5 -90t1 -90 v-817h-301z" />
<glyph unicode="N" horiz-adv-x="1669" d="M188 0v1366h375l527 -827q23 -35 40 -72t33 -74q2 -2 2 -3t2 -3q10 -23 19.5 -45.5t21.5 -44.5q-8 49 -14 99t-10 102q-2 33 -3 66.5t-1 66.5v735h301v-1366h-381l-516 825q-37 59 -69 120t-60 122q6 -43 13 -87t11 -89t7 -89t3 -87v-715h-301z" />
<glyph unicode="O" horiz-adv-x="1763" d="M113 684q0 313 199.5 512t570.5 199q377 0 571.5 -205t194.5 -516q0 -305 -201 -504t-565 -199q-377 0 -573.5 199t-196.5 514zM451 680q0 -23 2 -46.5t4 -45.5q23 -154 123 -281t303 -127q195 0 296 125t126 277q4 25 6 49t2 49q0 27 -2 55.5t-8 55.5 q-27 147 -129.5 270t-292.5 123q-199 0 -299.5 -127t-122.5 -279q-4 -25 -6 -49t-2 -49z" />
<glyph unicode="P" horiz-adv-x="1292" d="M188 0v1366h430h30h32q98 -4 194.5 -21.5t180.5 -66.5q90 -55 140 -143t50 -185q0 -236 -179 -336t-423 -100h-34q-17 0 -34 2q-18 0 -35.5 1t-33.5 1v-518h-318zM506 729h37h37q123 4 225 42t102 173q0 137 -100 172t-221 39q-14 0 -29.5 1t-30.5 1h-11h-9v-428z" />
<glyph unicode="Q" horiz-adv-x="1763" d="M113 690q0 315 202.5 510t573.5 195q348 0 554 -197t206 -496q0 -211 -90.5 -388t-317.5 -279l375 -299h-389l-271 237q-10 2 -19 1t-19 -1q-10 -2 -20 -2h-19q-377 0 -571.5 203t-194.5 516zM451 684q0 -20 1 -41.5t5 -44.5q18 -156 119.5 -287t306.5 -131 q201 0 299 125t123 277q4 27 6 54.5t2 53.5q0 20 -1 41t-5 41q-20 154 -125 283t-303 129q-193 0 -294.5 -123t-125.5 -273q-4 -27 -6 -52t-2 -52z" />
<glyph unicode="R" horiz-adv-x="1402" d="M188 0v1366h517h5h7q207 -2 380 -69.5t173 -290.5q0 -131 -86 -217.5t-232 -104.5q74 -27 111 -72t65 -104q4 -6 9 -14l8 -17l225 -477h-352l-172 387q-2 4 -3 7t-3 7q-53 113 -120 139.5t-212 26.5v-567h-320zM506 778h141q109 0 196 41t87 148q0 106 -74 146t-182 40 h-168v-375z" />
<glyph unicode="S" horiz-adv-x="1271" d="M135 1006q0 207 171 298t382 91q96 0 190.5 -12.5t184.5 -41.5l-27 -225q-78 31 -159.5 49.5t-165.5 18.5h-22q-11 0 -21 -2q-78 -6 -143.5 -44t-65.5 -118q0 -72 67.5 -113t161.5 -76q29 -12 59.5 -22t61.5 -23q131 -49 240.5 -133t109.5 -256q0 -227 -180 -326.5 t-416 -99.5q-102 0 -201.5 15.5t-195.5 44.5l27 245q82 -39 172 -63.5t184 -24.5h13h13q92 6 169 49.5t77 135.5q0 86 -72.5 130t-175.5 81q-23 8 -47 17t-47 17q-129 47 -236.5 129.5t-107.5 258.5z" />
<glyph unicode="T" d="M20 1141v225h1219v-225h-453v-1141h-317v1141h-449z" />
<glyph unicode="U" horiz-adv-x="1660" d="M188 539v825h318v-801q0 -150 66.5 -262.5t271.5 -112.5q199 0 259 116t62 255v8v8v789h308v-827q0 -276 -151 -421t-484 -145q-332 0 -491 138.5t-159 429.5z" />
<glyph unicode="V" horiz-adv-x="1513" d="M25 1366h337l334 -879q23 -53 42.5 -108t33.5 -111q6 20 12.5 40t12.5 40q12 41 26.5 81t28.5 79l326 858h315l-535 -1366h-389z" />
<glyph unicode="W" horiz-adv-x="2265" d="M20 1366h328l152 -522q47 -145 86 -295t61 -301h10q23 127 50.5 251t56.5 249l160 618h424l155 -559q39 -137 73 -277.5t56 -281.5h10q6 41 15 82l16 82q27 121 59.5 243.5t67.5 241.5l133 469h312l-414 -1366h-404l-141 514q-12 49 -25.5 97t-25.5 96q-29 109 -56.5 217 t-41.5 217h-9q-18 -127 -47.5 -253t-64.5 -251l-166 -637h-408z" />
<glyph unicode="X" horiz-adv-x="1513" d="M25 0l518 717l-471 649h364l334 -483l338 483h336l-475 -649l524 -717h-375l-366 537l-373 -537h-354z" />
<glyph unicode="Y" horiz-adv-x="1503" d="M20 1366h371l336 -510q10 -14 19.5 -30.5t17.5 -32.5q6 16 15 31.5t18 29.5l346 512h338l-568 -813v-553h-317v545z" />
<glyph unicode="Z" horiz-adv-x="1257" d="M78 0v236l649 804q2 4 5 8l7 7q2 4 5.5 7t5.5 7l36 41q18 20 43 37q-4 0 -7 -1t-7 -1q-4 -2 -7 -2h-7h-21h-18q-10 -2 -21 -2h-20h-623v225h1051v-256l-657 -817q-14 -20 -33 -40t-39 -36q29 4 56.5 5t53.5 1h646v-223h-1098z" />
<glyph unicode="[" horiz-adv-x="862" d="M190 -416v1891h502v-181h-225v-1525h225v-185h-502z" />
<glyph unicode="\" horiz-adv-x="1026" d="M94 1475h250l766 -1891h-252z" />
<glyph unicode="]" horiz-adv-x="862" d="M170 -231h225v1525h-225v181h502v-1891h-502v185z" />
<glyph unicode="^" horiz-adv-x="1177" d="M14 688l379 684h391l381 -684h-313l-262 477l-264 -477h-312z" />
<glyph unicode="_" horiz-adv-x="1177" d="M0 -96h1178v-234h-1178v234z" />
<glyph unicode="`" horiz-adv-x="1177" d="M229 1456h308l190 -285h-190z" />
<glyph unicode="a" horiz-adv-x="1267" d="M84 299q0 172 137 240.5t301 83.5q39 4 77 5t75 1q20 0 40.5 -1t41.5 -1q6 0 13 -1t13 -1q14 0 28.5 -1t27.5 -1q0 115 -62.5 169t-195.5 54h-21q-10 0 -20 -2q-86 -6 -170 -35t-150 -74l-10 228q96 35 198.5 52t206.5 17q25 0 51.5 -1t53.5 -5q92 -8 179 -41t142 -100 q39 -47 54.5 -104.5t17.5 -116.5q2 -16 2 -34v-34q0 -150 2 -298t10 -298h-268l-6 152q-57 -84 -154.5 -125t-208.5 -41q-168 0 -286.5 76.5t-118.5 236.5zM383 293q0 -63 56.5 -97t125.5 -34q141 0 208 90t71 197v7v5q-8 2 -18 2h-19h-37q-31 0 -66.5 -1t-72.5 -3 q-94 -10 -171 -44t-77 -122z" />
<glyph unicode="b" horiz-adv-x="1378" d="M152 0v1475h301v-451v-48q0 -24 -2 -46q-2 -23 -4.5 -46.5t-6.5 -47.5q59 100 152.5 148t226.5 48q250 0 359.5 -154.5t109.5 -349.5v-11v-11q-6 -197 -110.5 -358.5t-370.5 -161.5q-119 0 -214 41t-153 133l-6 -160h-282zM455 498q0 -12 1 -24.5t1 -24.5 q12 -96 73.5 -177.5t190.5 -81.5q111 0 168 71t76 155q6 25 8 47t2 43q0 16 -1 33.5t-3 33.5q-14 90 -70.5 165t-175.5 75q-127 0 -190.5 -81t-75.5 -179q-2 -14 -3 -27.5t-1 -27.5z" />
<glyph unicode="c" horiz-adv-x="1015" d="M88 512q0 227 164 368.5t424 141.5q68 0 131 -8t125 -25l-23 -211q-12 4 -23.5 7t-21.5 8q-35 10 -69.5 15t-71.5 5q-145 0 -234.5 -88t-89.5 -211q0 -135 92.5 -219t247.5 -84q55 0 105.5 11t97.5 30l16 -221q-23 -6 -45 -11.5t-45 -9.5q-45 -8 -89 -12t-91 -4 q-276 0 -438 138t-162 380z" />
<glyph unicode="d" horiz-adv-x="1382" d="M84 510v3v3q2 193 115.5 354.5t367.5 161.5q125 0 215 -47t148 -139q-6 45 -9 90t-3 90v449h303v-1180v-21v-20q0 -12 1 -22.5t1 -20.5v-53q0 -27 2 -52q0 -27 1 -53t3 -53h-285l-4 172q-55 -94 -149.5 -140t-215.5 -46q-264 0 -377.5 160.5t-113.5 363.5zM397 504 q0 -18 2 -38t7 -40q16 -88 76.5 -162t174.5 -74q123 0 185.5 78t77.5 172q2 14 3 29.5t1 30t-1 30t-3 29.5q-14 94 -78 174t-189 80q-131 0 -187 -80t-67 -178q0 -12 -1 -25.5t-1 -25.5z" />
<glyph unicode="e" horiz-adv-x="1259" d="M84 506q0 229 148.5 381.5t422.5 152.5q270 0 394.5 -156.5t124.5 -371.5q0 -12 -1.5 -23.5t-3.5 -21.5v-4v-4q-2 -10 -3 -18.5t-1 -18.5h-784q12 -123 110.5 -188.5t235.5 -65.5q100 0 189.5 29.5t173.5 72.5l6 -227q-82 -31 -171 -47t-180 -19q-12 -2 -25 -2h-26 q-287 0 -448.5 139.5t-161.5 391.5zM377 604h508q-2 96 -57.5 174t-182.5 78t-192.5 -76t-75.5 -176z" />
<glyph unicode="f" horiz-adv-x="763" d="M-78 813v195h234v15v15q0 23 1 45.5t3 44.5q2 55 15 109.5t46 103.5q47 66 126 97.5t163 40.5q16 0 31.5 1t29.5 1q20 0 41 -1t41 -3t41 -7l41 -8l-18 -211q-12 4 -23.5 6.5t-21.5 4.5q-10 0 -21.5 1t-23.5 1q-98 0 -131 -57.5t-37 -127.5q-2 -18 -2 -37v-34h264v-195 h-264v-813h-301v813h-234z" />
<glyph unicode="g" horiz-adv-x="1363" d="M84 504v7v5q0 195 111.5 355.5t365.5 160.5q121 0 218.5 -43t150.5 -139l6 162h287v-889q0 -266 -141.5 -409.5t-467.5 -143.5q-106 0 -208.5 18.5t-198.5 53.5l24 225q84 -35 172.5 -58.5t182.5 -23.5h13h15q86 6 165 40t118 105q18 33 26.5 72t12.5 78q2 23 3 45t1 43 v7v5v13v10q-57 -92 -159.5 -147.5t-227.5 -55.5q-246 0 -355.5 158t-113.5 346zM397 520q0 -16 1 -33.5t5 -33.5q14 -90 75 -165t177 -75q121 0 184.5 77t80.5 169q2 16 3 30.5t1 28.5q0 12 -1 25.5t-3 25.5q-14 92 -81 169t-184 77q-127 0 -187 -80t-69 -174q-2 -10 -2 -20 v-21z" />
<glyph unicode="h" horiz-adv-x="1368" d="M154 0v1475h301v-605q68 84 157.5 123t208.5 39q254 0 329 -131t75 -319v-582h-301v492v48q0 26 -2 52q-8 82 -48 151.5t-157 69.5q-129 0 -185.5 -79t-70.5 -173q-2 -23 -4 -47.5t-2 -46.5v-51v-416h-301z" />
<glyph unicode="i" horiz-adv-x="608" d="M147 1198v248h312v-248h-312zM154 0v1014h301v-1014h-301z" />
<glyph unicode="j" horiz-adv-x="622" d="M-29 -410l11 189q6 2 10 1t8 -1h8h8q82 0 118 49t36 113v32v1041h301v-1075q0 -158 -83 -259.5t-282 -101.5q-35 0 -68.5 3t-66.5 9zM166 1196v250h309v-250h-309z" />
<glyph unicode="k" horiz-adv-x="1241" d="M154 0v1475h301v-684v-51q0 -26 -2 -50q0 -25 -2 -50.5t-5 -49.5q23 31 48.5 61.5t52.5 59.5l280 303h351l-435 -453l492 -561h-383l-301 371q-27 35 -54.5 71.5t-50.5 73.5q4 -33 6.5 -65.5t2.5 -67.5v-383h-301z" />
<glyph unicode="l" horiz-adv-x="606" d="M152 0v1475h301v-1475h-301z" />
<glyph unicode="m" horiz-adv-x="2019" d="M154 1014h286l6 -154q59 82 155.5 126t205.5 44q121 0 200.5 -44t129.5 -136q59 86 157.5 133t212.5 47q240 0 305.5 -136t65.5 -306v-588h-303v492v40q0 20 -1 41t-1 41q-8 76 -42 137.5t-132 61.5q-111 0 -158 -69.5t-61 -151.5q-4 -33 -6.5 -64.5t-2.5 -58.5v-469 h-303v520v72q0 14 -1 27.5t-3 27.5q-10 63 -48 114.5t-122 51.5q-109 0 -158 -67.5t-63 -147.5q-4 -23 -6 -46.5t-2 -43.5v-508h-303v766v61q0 31 -2 64q0 31 -2 61z" />
<glyph unicode="n" horiz-adv-x="1378" d="M154 1014h284l6 -162q74 92 169.5 135t224.5 43q256 0 327.5 -137t71.5 -322v-571h-301v510v37q0 18 -2 37q-6 86 -47 157.5t-164 71.5q-127 0 -181.5 -77t-68.5 -169q-4 -23 -5 -44t-1 -42v-481h-301v645q0 92 -3 184.5t-9 184.5z" />
<glyph unicode="o" horiz-adv-x="1382" d="M84 512q0 236 167 382t439 146q274 0 440 -153.5t166 -389t-167.5 -379t-440.5 -143.5q-276 0 -440 149.5t-164 387.5zM397 512q0 -14 1 -28.5t3 -28.5q12 -106 81 -196.5t212 -90.5q127 0 195.5 81t85.5 179q4 18 6 37.5t2 38.5q0 16 -1 33.5t-5 33.5q-14 102 -83 188.5 t-204 86.5q-129 0 -199.5 -83t-87.5 -183q-4 -18 -5 -35t-1 -33z" />
<glyph unicode="p" horiz-adv-x="1386" d="M154 1016h288l4 -160q68 88 163.5 132t219.5 44q246 0 358.5 -159.5t112.5 -352.5q0 -203 -108.5 -368.5t-376.5 -165.5h-6h-6q-102 2 -195.5 41t-146.5 116q2 -18 3 -37.5t3 -39.5v-40v-36v-406h-301v1135q0 37 -1 73.5t-1 75.5l-4 74q-2 37 -6 74zM467 502 q0 -12 1 -25.5t1 -25.5q12 -98 70.5 -178t187.5 -80q113 0 173.5 72.5t78.5 158.5q4 20 6 40.5t2 39.5q0 12 -1 25.5t-1 25.5q-10 98 -65.5 178t-184.5 80t-190.5 -80t-73.5 -176q-2 -14 -3 -27.5t-1 -27.5z" />
<glyph unicode="q" horiz-adv-x="1376" d="M88 516q0 195 113.5 355.5t367.5 160.5q117 0 213.5 -44t149.5 -134l8 162h285v-1432h-301v404v45q0 23 2 45q0 23 2 45l4 45q-47 -92 -142.5 -137t-209.5 -45q-266 0 -379 162.5t-113 367.5zM399 485q0 -10 2 -20q8 -102 65.5 -188.5t197.5 -86.5q119 0 179 75t77 165 q4 16 5 33.5t1 34.5q0 14 -1 27.5t-3 27.5q-14 98 -78 179t-191 81q-125 0 -181 -77t-69 -169q-2 -14 -3 -30.5t-1 -30.5v-21z" />
<glyph unicode="r" horiz-adv-x="882" d="M154 1014h272l8 -256q33 106 111 185t215 79q12 0 23.5 -1t21.5 -1q10 -2 21.5 -4t23.5 -4v-246q-27 6 -52.5 10t-54.5 4q-156 0 -213 -93t-63 -204q-2 -10 -2 -22v-23v-20v-418h-303v709v25v26q-2 12 -2 25v26q0 51 -1 101.5t-5 101.5z" />
<glyph unicode="s" horiz-adv-x="1011" d="M96 723q0 147 123 217t268 86q27 4 52.5 5t50.5 1q72 0 144.5 -11t142.5 -28l-23 -196q-39 12 -81 20t-83 14q-20 2 -40.5 3.5t-41.5 1.5q-18 0 -38.5 -1t-43.5 -6q-49 -8 -90 -29.5t-41 -66.5q0 -41 43 -63.5t109 -42.5q27 -6 55.5 -14.5t56.5 -18.5q98 -33 181.5 -94.5 t83.5 -194.5q0 -160 -134.5 -234.5t-295.5 -84.5q-14 -2 -28 -2h-26q-86 0 -171 12t-169 31l15 221q70 -31 145.5 -51.5t151.5 -20.5q16 0 34 2l37 4q51 10 93 35t42 74q0 41 -43 65.5t-106 44.5q-27 10 -54.5 18.5t-56.5 20.5q-98 35 -180 96.5t-82 186.5z" />
<glyph unicode="t" horiz-adv-x="868" d="M2 813v195h223v206l303 86v-292h267v-195h-267v-369v-11v-11q0 -82 26 -150.5t148 -68.5q12 0 25.5 1t26.5 3q12 2 25.5 5t25.5 5l10 -205q-51 -8 -101 -13t-102 -5q-231 0 -311 107.5t-80 287.5v424h-219z" />
<glyph unicode="u" horiz-adv-x="1368" d="M143 442v572h301v-488v-46q0 -24 2 -48q6 -86 47.5 -157.5t163.5 -71.5q117 0 168.5 72.5t65.5 158.5q4 27 6 53.5t2 51.5v475h303v-619q0 -20 1 -39.5t1 -40.5q2 -29 2 -58.5t2 -57.5q2 -51 4 -100.5t7 -98.5h-287l-8 156q-57 -82 -157.5 -126t-211.5 -44 q-254 0 -333 131.5t-79 324.5z" />
<glyph unicode="v" horiz-adv-x="1251" d="M25 1014h329l195 -488q31 -74 56.5 -148.5t37.5 -152.5q14 59 32.5 118.5t41.5 117.5l209 553h303l-432 -1014h-338z" />
<glyph unicode="w" horiz-adv-x="2011" d="M20 1014h320l135 -365q41 -109 75 -219.5t52 -224.5q16 102 44 201.5t61 197.5l139 410h348l166 -457q31 -84 56.5 -171t39.5 -177q14 90 37 178t51 174l152 453h293l-361 -1014h-352l-146 393q-37 102 -67.5 203.5t-46.5 208.5q-14 -72 -34.5 -142.5t-41.5 -142.5 q0 -2 -1 -4t-1 -4q-8 -25 -15.5 -48.5t-13.5 -47.5l-145 -416h-346z" />
<glyph unicode="x" horiz-adv-x="1265" d="M25 0l403 526l-367 488h357l192 -273q4 -4 7.5 -9t7.5 -11q8 -10 15 -20.5t13 -20.5q12 20 25 39l24 37l179 258h317l-352 -488l397 -526h-362l-211 307q-6 10 -12.5 18.5t-12.5 18.5q-6 8 -13 17.5t-14 17.5q-6 -14 -16 -29.5t-20 -30.5q-4 -4 -7.5 -9t-7.5 -9 l-211 -301h-331z" />
<glyph unicode="y" horiz-adv-x="1257" d="M20 1016h336l240 -619q6 -16 12 -33.5t13 -33.5l12 -36t12 -34q4 10 7 21.5t7 21.5q10 31 20.5 62.5t22.5 62.5l226 588h307l-465 -1086q-63 -143 -160.5 -249.5t-298.5 -106.5q-33 0 -64.5 3t-64.5 7l-41 8q-20 4 -43 9v-2l23 198q31 -8 62.5 -14t64.5 -6 q100 0 150.5 51t82.5 123z" />
<glyph unicode="z" horiz-adv-x="1134" d="M78 0v201l485 506q23 25 46.5 46t49.5 44q8 6 17.5 13t17.5 15q-6 0 -13 -1t-13 -1h-14h-13q-12 0 -24.5 -1t-22.5 -1h-25h-24h-439v193h924v-203l-491 -512q-27 -29 -58.5 -56.5t-66.5 -54.5q35 4 68.5 6.5t68.5 4.5t69 2h68h363v-201h-973z" />
<glyph unicode="{" horiz-adv-x="862" d="M61 438v183q80 16 104.5 68t24.5 116v377q0 174 104.5 233.5t283.5 59.5h112v-181h-33q-113 0 -151.5 -25.5t-40.5 -133.5v-35v-314q0 -84 -20.5 -136t-88.5 -99q-8 -6 -17 -11t-20 -12q92 -49 119 -108.5t27 -149.5v-311q0 -127 44 -158.5t181 -31.5v-185h-74 q-188 4 -307 50.5t-119 246.5v371q0 66 -22.5 119t-106.5 67z" />
<glyph unicode="|" horiz-adv-x="1177" d="M438 -342v1706h299v-1706h-299z" />
<glyph unicode="}" horiz-adv-x="862" d="M172 -233q4 2 8 2t8 -2h9h8q133 0 162.5 43t29.5 153v309q0 84 19.5 135.5t85.5 96.5q8 6 18 13t23 13q-90 51 -118 110.5t-28 147.5v312q0 129 -43 161.5t-182 32.5v181h74q184 0 306 -46.5t122 -246.5v-375q0 -66 22.5 -118t104.5 -68v-183q-80 -16 -103.5 -67.5 t-23.5 -116.5v-375q0 -195 -118 -243t-310 -50l-74 -2v183z" />
<glyph unicode="~" horiz-adv-x="1177" d="M16 602q0 2 1 3t1 3q49 100 120 184.5t212 90.5q66 0 125.5 -15.5t114.5 -33.5q10 -4 18 -7.5t17 -5.5q49 -16 98 -27.5t100 -11.5q63 0 102.5 32t65.5 73l170 -86q-57 -100 -142 -185.5t-231 -85.5q-55 0 -109 16.5t-108 35.5q-27 10 -53 19t-51 15q-27 8 -53.5 12.5 t-53.5 4.5q-70 0 -109.5 -38t-68.5 -87z" />
<glyph unicode="&#xa1;" horiz-adv-x="851" d="M188 -350l50 973h251l54 -973h-355zM207 762v254h311v-254h-311z" />
<glyph unicode="&#xa2;" d="M176 686q0 213 134 344t374 162v170h117v-164q29 -2 56.5 -5t55.5 -7q27 -4 54.5 -9.5t56.5 -11.5l-25 -211q-25 8 -49 14.5t-49 10.5t-50.5 6t-49.5 2v-606q61 0 118.5 11t114.5 34l15 -221l-62 -12q-31 -6 -61 -11q-31 -4 -63 -7t-62 -5v-170h-117v170 q-244 33 -376 166t-132 350zM489 688q0 -96 47.5 -169t147.5 -116v564q-96 -43 -145.5 -115t-49.5 -164z" />
<glyph unicode="&#xa3;" d="M117 0v207h200v440h-174v146h174v20v52q0 26 2 53q4 74 20.5 146.5t63.5 133.5q78 102 201 142t256 46h25h24q66 0 130.5 -8t127.5 -22l-16 -223q-47 16 -99.5 24t-105.5 8q-207 0 -260 -108.5t-53 -263.5h350v-146h-350v-440h524v-207h-1040z" />
<glyph unicode="&#xa4;" d="M41 1018l129 112l197 -169q59 35 127.5 54t142.5 19q72 0 135.5 -19.5t120.5 -51.5l192 167l129 -112l-190 -168q41 -51 64.5 -108.5t23.5 -120.5q0 -61 -22.5 -118t-63.5 -108l197 -170l-129 -112l-195 168q-59 -35 -128 -54.5t-140 -19.5q-72 0 -139.5 20.5 t-126.5 53.5l-193 -168l-129 112l193 168q-39 51 -61.5 108.5t-22.5 119.5q0 61 23.5 118.5t62.5 108.5zM371 621q0 -92 76.5 -160t183.5 -68q106 0 184 66.5t78 161.5q0 92 -78 158.5t-184.5 66.5t-183 -66.5t-76.5 -158.5z" />
<glyph unicode="&#xa5;" d="M-20 1366h368l258 -510q4 -8 8 -15t11 -16l8 -16l8 -16q4 16 13.5 30.5t19.5 28.5l268 514h342l-299 -492h258v-147h-350l-74 -127h424v-145h-455v-455h-313v455h-440v145h405l-73 127h-332v147h241z" />
<glyph unicode="&#xa6;" horiz-adv-x="1177" d="M438 313h299v-655h-299v655zM438 657v707h299v-707h-299z" />
<glyph unicode="&#xa7;" d="M100 -365v-2l23 240q82 -35 174 -58.5t186 -29.5q16 0 34 -1t34 -1q20 0 42.5 1t45.5 5q72 10 131 44t59 106t-72.5 117.5t-174.5 86.5q-29 10 -58.5 21.5t-58.5 23.5q-137 55 -251 136.5t-114 236.5q0 96 57.5 163t139.5 122q-14 10 -27.5 20.5t-25.5 20.5 q-59 47 -90 101t-31 138q0 170 143.5 261.5t317.5 109.5q23 2 45 3t45 1q25 0 50.5 -1t49.5 -3q76 -6 150.5 -20.5t146.5 -30.5l-29 -223q-86 27 -174 46t-180 19q-18 0 -38.5 -1t-41.5 -5q-72 -8 -132 -41t-64 -104q0 -84 81.5 -133.5t194.5 -90.5q25 -8 48.5 -17t49.5 -17 q139 -53 256 -132t117 -235q0 -94 -61.5 -166t-151.5 -117q84 -47 129 -112.5t45 -153.5q0 -207 -170 -305t-383 -98q-119 0 -235.5 22t-231.5 53zM334 608q0 -84 86 -141t190 -96q55 -20 108.5 -38t92.5 -32q43 33 77 76t34 94q0 78 -62.5 124t-138.5 77q-16 6 -33.5 12 t-34.5 12q-55 20 -108 41t-107 43q-41 -35 -72.5 -77t-31.5 -95z" />
<glyph unicode="&#xa8;" horiz-adv-x="1177" d="M229 1219v229h256v-229h-256zM692 1219v229h254v-229h-254z" />
<glyph unicode="&#xa9;" horiz-adv-x="1857" d="M113 682q0 297 241.5 505t581.5 208q334 0 570.5 -211t236.5 -502q0 -289 -235.5 -500t-571.5 -211q-340 0 -581.5 209t-241.5 502zM272 682q0 -236 191.5 -412t468.5 -176q276 0 463.5 177.5t187.5 410.5q0 231 -188.5 409.5t-462.5 178.5q-276 0 -468 -174t-192 -414z M475 684q0 201 146.5 303.5t365.5 102.5q41 0 81 -4.5t79 -12.5q20 -4 39.5 -9t40.5 -11l-19 -152q-49 23 -102 35t-111 12q-125 0 -210 -65.5t-85 -180.5q0 -119 88.5 -190.5t223.5 -71.5q53 0 106 11.5t105 25.5l6 -155q-53 -12 -109.5 -20.5t-115.5 -8.5q-213 0 -371 93 t-158 298z" />
<glyph unicode="&#xaa;" horiz-adv-x="845" d="M84 954q0 100 83 143.5t183 53.5q31 4 60.5 5t56.5 1h46q24 0 48 -2q-2 61 -44 87t-109 26q-66 0 -126.5 -20.5t-111.5 -53.5l-8 158q66 23 131 34t135 11q172 0 250 -65.5t78 -217.5v-86q0 -43 2 -86q0 -45 2 -88l4 -86h-193l-2 70q-47 -39 -99 -59.5t-120 -20.5 q-104 0 -185 48t-81 148zM92 567v117h672v-117h-672zM297 950q0 -31 26.5 -47t59.5 -20h7h7q78 0 122 47t44 110h-13q-7 0 -15 2h-17h-16h-27q-14 0 -29 -2q-55 -4 -102 -23.5t-47 -66.5z" />
<glyph unicode="&#xab;" horiz-adv-x="1265" d="M109 512l262 399h284l-243 -399l250 -406h-285zM625 512l260 399h286l-243 -399l248 -406h-283z" />
<glyph unicode="&#xac;" horiz-adv-x="1177" d="M78 303v244h1020v-547h-297v303h-723z" />
<glyph unicode="&#xad;" horiz-adv-x="1024" />
<glyph unicode="&#xae;" horiz-adv-x="1857" d="M113 682q0 297 241.5 505t581.5 208q334 0 570.5 -211t236.5 -502q0 -289 -235.5 -500t-571.5 -211q-340 0 -581.5 209t-241.5 502zM272 682q0 -236 191.5 -412t468.5 -176q276 0 463.5 177.5t187.5 410.5q0 231 -188.5 409.5t-462.5 178.5q-276 0 -468 -174t-192 -414z M610 299v784h318h23h22q115 -6 210 -47t95 -164q0 -68 -44 -117.5t-120 -66.5q35 -20 54.5 -48t35.5 -60l142 -281h-236l-104 223q-2 4 -5.5 9.5t-5.5 9.5q-27 51 -62.5 64t-109.5 13v-319h-213zM821 754h76h15q7 0 16 2q47 4 87 25.5t40 70.5q0 55 -44 73.5t-100 18.5h-90 v-190z" />
<glyph unicode="&#xaf;" horiz-adv-x="655" />
<glyph unicode="&#xb0;" horiz-adv-x="888" d="M82 1194q0 127 108.5 217t251.5 90q145 0 254 -90t109 -217t-106.5 -219t-256.5 -92q-145 0 -252.5 92t-107.5 219zM262 1194q0 -66 53.5 -113t126.5 -47q76 0 130.5 47t54.5 113t-54.5 111t-130.5 45q-72 0 -126 -45t-54 -111z" />
<glyph unicode="&#xb1;" d="M80 150v178h1100v-178h-1100zM80 770v178h440v348h217v-348h443v-178h-443v-348h-217v348h-440z" />
<glyph unicode="&#xb2;" horiz-adv-x="833" d="M66 547v149q33 25 85 63t107 83l61 53q31 27 58 53q49 47 80.5 94.5t31.5 85.5q0 51 -44 79t-97 28q-68 0 -129 -22.5t-115 -53.5l-20 166q76 27 153.5 43t159.5 16q125 0 225.5 -59t100.5 -178q0 -25 -6 -49.5t-17 -48.5q-31 -68 -89 -133.5t-122 -120.5 q-33 -29 -65.5 -55.5t-61.5 -47.5l390 2v-147h-686z" />
<glyph unicode="&#xb3;" horiz-adv-x="833" d="M72 563l12 162q55 -20 113.5 -33.5t117.5 -13.5q14 0 29.5 1t32.5 3q51 8 93 31.5t42 74.5q0 53 -47 76t-105 29q-23 2 -45 3t-43 1h-12h-12h-25q-12 0 -24 -2v152q16 -2 34 -3h37q20 0 45 1.5t52 5.5q53 6 97 28.5t44 71.5q0 39 -34 57.5t-73 24.5q-14 2 -28.5 3 t-26.5 1h-24q-12 0 -23 -2q-49 -4 -96 -15.5t-92 -29.5l-15 156l36 8t34 6q53 10 106.5 16t108.5 6h18h19q119 -6 218 -54t99 -169q0 -68 -43 -111.5t-110 -70.5q80 -27 120.5 -78t40.5 -127q0 -106 -90 -160.5t-198 -70.5q-29 -4 -56.5 -6.5t-54.5 -2.5q-70 0 -138 8.5 t-134 22.5z" />
<glyph unicode="&#xb4;" horiz-adv-x="1177" d="M451 1171l188 287h309l-319 -287h-178z" />
<glyph unicode="&#xb5;" horiz-adv-x="1349" d="M147 -354v1337h299v-502q0 -18 1.5 -37.5t3.5 -37.5q10 -88 59 -161t170 -73q109 0 157 66.5t60 148.5q4 27 6 52.5t2 49.5v494h297v-983h-297v119q-35 -59 -90 -98t-137 -39t-136.5 32.5t-95.5 89.5v-458h-299z" />
<glyph unicode="&#xb6;" d="M47 965q0 203 120 302t347 99h653v-199h-94v-1583h-235v1583h-181v-1583h-235v991q-195 0 -285 118t-90 272z" />
<glyph unicode="&#xb7;" horiz-adv-x="655" />
<glyph unicode="&#xb8;" horiz-adv-x="1177" d="M537 -395l45 80q37 -12 76.5 -22.5t80.5 -10.5q8 0 18.5 1t20.5 3q33 4 59.5 21.5t26.5 50.5q0 37 -32.5 53t-73.5 16q-25 0 -48.5 -4t-45.5 -12l-35 49l127 170h114l-102 -133q12 4 25 6l24 4q10 0 22.5 1t24.5 1q72 0 128.5 -33.5t56.5 -99.5q0 -86 -74 -131t-164 -51 q-8 -2 -17 -2h-18q-61 0 -121.5 10t-117.5 33z" />
<glyph unicode="&#xb9;" horiz-adv-x="833" d="M92 1176l305 196h189v-825h-219v618l-158 -110z" />
<glyph unicode="&#xba;" horiz-adv-x="1077" d="M145 1075q0 147 114 234.5t280 87.5q170 0 280.5 -90t110.5 -239.5t-114 -234.5t-279 -85q-168 0 -280 88.5t-112 238.5zM170 567v117h737v-117h-737zM365 1059q4 -68 48 -123t130 -55q76 0 116.5 50t49.5 109q2 6 2 14v15v11v10q-6 66 -48 119t-124 53q-78 0 -122 -50.5 t-50 -111.5q-2 -6 -2 -13v-12v-8v-8z" />
<glyph unicode="&#xbb;" horiz-adv-x="1265" d="M90 106l244 406l-242 399h287l262 -399l-268 -406h-283zM602 106l248 406l-242 399h285l264 -399l-268 -406h-287z" />
<glyph unicode="&#xbc;" horiz-adv-x="2101" d="M92 1176l305 196h189v-825h-219v618l-158 -110zM518 -63l893 1493h170l-893 -1493h-170zM1298 164v149l371 512h273v-520h126v-141h-126v-164h-224v164h-420zM1507 305h217l5 326z" />
<glyph unicode="&#xbd;" horiz-adv-x="2101" d="M92 1176l305 196h189v-825h-219v618l-158 -110zM518 -63l893 1493h170l-893 -1493h-170zM1333 0v150q33 25 84 62.5t107 82.5q29 23 58.5 48.5t53.5 51.5q53 51 87 99.5t34 87.5q0 51 -42 77.5t-93 28.5h-3h-3q-68 0 -129.5 -21.5t-116.5 -52.5l-18 164q74 29 152.5 44.5 t160.5 15.5q125 0 225.5 -59.5t100.5 -178.5q0 -18 -4.5 -37.5t-10.5 -40.5q-27 -74 -89 -144.5t-132 -131.5q-33 -29 -64.5 -53.5t-60.5 -45.5l389 3v-150h-686z" />
<glyph unicode="&#xbe;" horiz-adv-x="2101" d="M72 565l12 160q55 -20 113.5 -32.5t117.5 -12.5q14 0 29.5 1t32.5 3q51 8 93 31.5t42 75.5q0 53 -47 75.5t-105 28.5q-23 2 -45 3t-43 1h-12h-12h-7h-5q-10 -2 -20 -2h-17v152q16 -2 34 -2h37q20 0 45 1t52 5q53 6 97 28.5t44 71.5q0 39 -34 57.5t-73 24.5q-14 2 -28.5 3 t-26.5 1h-24q-12 0 -23 -2q-49 -4 -96 -15.5t-92 -29.5l-15 154l36 8t34 8q53 10 106.5 16t108.5 6h18h19q119 -6 218 -55t99 -170q0 -68 -43 -110.5t-110 -69.5q80 -27 120.5 -78t40.5 -127q0 -106 -90 -160.5t-198 -70.5q-29 -4 -56.5 -6t-54.5 -2q-70 0 -138 7t-134 23z M520 -63l893 1493h170l-893 -1493h-170zM1298 164v149l371 512h273v-520h126v-141h-126v-164h-220v164h-424zM1509 305h217l3 326z" />
<glyph unicode="&#xbf;" horiz-adv-x="1196" d="M63 -23q0 102 54.5 173t120.5 135l8 8q4 4 8 6q68 66 126 139.5t64 186.5h275q-2 -86 -14.5 -141.5t-42.5 -104.5q-20 -31 -50 -63.5t-73 -73.5l-10 -10q-5 -5 -11 -9q-45 -45 -84 -99t-39 -116q0 -78 65.5 -116.5t145.5 -45.5q10 -2 20 -2h19q94 0 180 21.5t170 54.5 l25 -227q-86 -23 -175 -39t-179 -23q-23 0 -45.5 -1t-45.5 -1h-21h-22q-176 10 -322.5 91t-146.5 257zM426 762v252h311v-252h-311z" />
<glyph unicode="&#xc0;" horiz-adv-x="1638" d="M25 0l612 1366h352l629 -1366h-346l-137 311h-650l-135 -311h-325zM475 1751h309l191 -285h-191zM582 535h456l-202 483q-6 14 -11.5 29.5t-9.5 29.5q-2 8 -5 15.5t-5 15.5l-8 -29q-4 -14 -9 -26l-8 -29q-4 -14 -10 -29z" />
<glyph unicode="&#xc1;" horiz-adv-x="1638" d="M25 0l612 1366h352l629 -1366h-346l-137 311h-650l-135 -311h-325zM582 535h456l-202 483q-6 14 -11.5 29.5t-9.5 29.5q-2 8 -5 15.5t-5 15.5l-8 -29q-4 -14 -9 -26l-8 -29q-4 -14 -10 -29zM664 1464l188 287h311l-319 -287h-180z" />
<glyph unicode="&#xc2;" horiz-adv-x="1638" d="M25 0l612 1366h352l629 -1366h-346l-137 311h-650l-135 -311h-325zM457 1466l252 285h233l240 -285h-205l-154 170l-161 -170h-205zM582 535h456l-202 483q-6 14 -11.5 29.5t-9.5 29.5q-2 8 -5 15.5t-5 15.5l-8 -29q-4 -14 -9 -26l-8 -29q-4 -14 -10 -29z" />
<glyph unicode="&#xc3;" horiz-adv-x="1638" d="M25 0l612 1366h352l629 -1366h-346l-137 311h-650l-135 -311h-325zM420 1485q0 4 1 8t1 8q12 86 77.5 157t174.5 71q45 0 86 -12.5t80 -26.5l73 -25q37 -12 76 -14q47 0 79 28.5t40 67.5h117q-12 -94 -73.5 -169t-182.5 -75q-41 0 -80 11.5t-76 25.5t-76 25.5t-80 11.5 q-51 0 -81.5 -25.5t-40.5 -66.5h-115zM582 535h456l-202 483q-6 14 -11.5 29.5t-9.5 29.5q-2 8 -5 15.5t-5 15.5l-8 -29q-4 -14 -9 -26l-8 -29q-4 -14 -10 -29z" />
<glyph unicode="&#xc4;" horiz-adv-x="1638" d="M25 0l612 1366h352l629 -1366h-346l-137 311h-650l-135 -311h-325zM461 1493v229h258v-229h-258zM582 535h456l-202 483q-6 14 -11.5 29.5t-9.5 29.5q-2 8 -5 15.5t-5 15.5l-8 -29q-4 -14 -9 -26l-8 -29q-4 -14 -10 -29zM926 1493v229h254v-229h-254z" />
<glyph unicode="&#xc5;" horiz-adv-x="1638" d="M25 0l612 1366h352l629 -1366h-346l-137 311h-650l-135 -311h-325zM582 535h456l-202 483q-6 14 -11.5 29.5t-9.5 29.5q-2 8 -5 15.5t-5 15.5l-8 -29q-4 -14 -9 -26l-8 -29q-4 -14 -10 -29zM586 1663q0 84 69.5 143.5t163.5 59.5q96 0 165 -59.5t69 -143.5 q0 -82 -69 -142.5t-165 -60.5q-94 0 -163.5 60.5t-69.5 142.5zM725 1663q0 -35 27.5 -59.5t66.5 -24.5q41 0 68.5 24.5t27.5 59.5t-28.5 58.5t-67.5 23.5t-66.5 -23.5t-27.5 -58.5z" />
<glyph unicode="&#xc6;" horiz-adv-x="2119" d="M-12 0l860 1366h1118v-225h-612l37 -334h528v-223h-508l39 -361h532v-223h-827l-29 311h-606l-192 -311h-340zM655 535h449l-53 573q-2 8 -3 16.5t-1 16.5v14v16q-6 -8 -10.5 -16t-8.5 -14q-6 -8 -10 -16.5t-10 -16.5z" />
<glyph unicode="&#xc7;" horiz-adv-x="1390" d="M117 668q0 340 226 522t609 182q96 0 190.5 -16.5t188.5 -42.5l-26 -232q-76 35 -161 52.5t-173 17.5q-236 0 -375 -125t-139 -328q0 -211 144 -346t392 -135q86 0 170 15.5t162 41.5l12 -241q-31 -8 -61.5 -14.5t-61.5 -10.5q-59 -8 -120.5 -13t-124.5 -5l-95 -123 q23 6 47.5 9t49.5 3q72 0 128 -32.5t56 -100.5q0 -82 -69.5 -127t-151.5 -55q-14 0 -26.5 -1t-24.5 -1q-61 0 -122 10t-118 33l43 80q39 -12 78 -22.5t82 -10.5q8 0 17 1t20 1q33 6 59.5 23.5t26.5 50.5t-28 49t-62 20h-8h-7q-25 0 -48 -4t-46 -12l-35 49l119 160 q-334 33 -535.5 205t-201.5 473z" />
<glyph unicode="&#xc8;" horiz-adv-x="1265" d="M188 0v1366h930v-225h-612v-330h561v-223h-561v-365h622v-223h-940zM287 1751h309l190 -285h-190z" />
<glyph unicode="&#xc9;" horiz-adv-x="1265" d="M188 0v1366h930v-225h-612v-330h561v-223h-561v-365h622v-223h-940zM475 1464l189 287h311l-320 -287h-180z" />
<glyph unicode="&#xca;" horiz-adv-x="1265" d="M188 0v1366h930v-225h-612v-330h561v-223h-561v-365h622v-223h-940zM268 1466l252 285h234l239 -285h-205l-151 170l-164 -170h-205z" />
<glyph unicode="&#xcb;" horiz-adv-x="1265" d="M188 0v1366h930v-225h-612v-330h561v-223h-561v-365h622v-223h-940zM272 1493v229h258v-229h-258zM737 1493v229h254v-229h-254z" />
<glyph unicode="&#xcc;" horiz-adv-x="724" d="M16 1751h310l190 -285h-190zM203 0v1366h317v-1366h-317z" />
<glyph unicode="&#xcd;" horiz-adv-x="724" d="M203 0v1366h317v-1366h-317zM205 1464l188 287h312l-322 -287h-178z" />
<glyph unicode="&#xce;" horiz-adv-x="724" d="M-2 1466l252 285h233l240 -285h-205l-153 170l-162 -170h-205zM203 0v1366h317v-1366h-317z" />
<glyph unicode="&#xcf;" horiz-adv-x="724" d="M2 1473v229h256v-229h-256zM203 0v1366h317v-1366h-317zM467 1473v229h254v-229h-254z" />
<glyph unicode="&#xd0;" horiz-adv-x="1644" d="M31 614v191h157v561h359q53 0 108.5 -1t112.5 -5q127 -6 250 -34t227 -91q162 -98 222.5 -244.5t60.5 -310.5q0 -160 -65.5 -309.5t-217.5 -245.5q-94 -59 -205.5 -86t-226.5 -33q-43 -4 -86 -5t-84 -1h-455v614h-157zM506 211h20h23q10 -2 20 -2h21q272 0 439 115.5 t167 365.5q0 119 -58.5 226.5t-179.5 168.5q-68 35 -145.5 48.5t-157.5 17.5q-29 0 -57.5 1t-56.5 1h-18h-17v-348h313v-191h-313v-403z" />
<glyph unicode="&#xd1;" horiz-adv-x="1669" d="M188 0v1366h375l527 -827q23 -35 40 -72t33 -74q2 -2 2 -3t2 -3q10 -23 19.5 -45.5t21.5 -44.5q-8 49 -14 99t-10 102q-2 33 -3 66.5t-1 66.5v735h301v-1366h-381l-516 825q-37 59 -69 120t-60 122q6 -43 13 -87t11 -89t7 -89t3 -87v-715h-301zM434 1485q0 4 1 8t1 8 q12 86 78 157t174 71q45 0 86 -12.5t80 -26.5l74 -25q37 -12 76 -14q47 0 78.5 28.5t37.5 67.5h119q-12 -94 -73.5 -169t-182.5 -75q-43 0 -81 11.5t-75 25.5q-2 0 -4 1t-4 1q-35 14 -71.5 24.5t-75.5 10.5q-51 0 -82 -25.5t-41 -66.5h-115z" />
<glyph unicode="&#xd2;" horiz-adv-x="655" />
<glyph unicode="&#xd3;" horiz-adv-x="1763" d="M113 684q0 313 199.5 512t570.5 199q377 0 571.5 -205t194.5 -516q0 -305 -201 -504t-565 -199q-377 0 -573.5 199t-196.5 514zM451 680q0 -23 2 -46.5t4 -45.5q23 -154 123 -281t303 -127q195 0 296 125t126 277q4 25 6 49t2 49q0 27 -2 55.5t-8 55.5 q-27 147 -129.5 270t-292.5 123q-199 0 -299.5 -127t-122.5 -279q-4 -25 -6 -49t-2 -49zM725 1464l188 287h312l-320 -287h-180z" />
<glyph unicode="&#xd4;" horiz-adv-x="1763" d="M113 684q0 313 199.5 512t570.5 199q377 0 571.5 -205t194.5 -516q0 -305 -201 -504t-565 -199q-377 0 -573.5 199t-196.5 514zM451 680q0 -23 2 -46.5t4 -45.5q23 -154 123 -281t303 -127q195 0 296 125t126 277q4 25 6 49t2 49q0 27 -2 55.5t-8 55.5 q-27 147 -129.5 270t-292.5 123q-199 0 -299.5 -127t-122.5 -279q-4 -25 -6 -49t-2 -49zM518 1466l252 285h234l239 -285h-205l-153 170l-162 -170h-205z" />
<glyph unicode="&#xd5;" horiz-adv-x="1763" d="M113 684q0 313 199.5 512t570.5 199q377 0 571.5 -205t194.5 -516q0 -305 -201 -504t-565 -199q-377 0 -573.5 199t-196.5 514zM451 680q0 -23 2 -46.5t4 -45.5q23 -154 123 -281t303 -127q195 0 296 125t126 277q4 25 6 49t2 49q0 27 -2 55.5t-8 55.5 q-27 147 -129.5 270t-292.5 123q-199 0 -299.5 -127t-122.5 -279q-4 -25 -6 -49t-2 -49zM477 1483q0 4 1 8t1 8q14 86 80 156.5t174 70.5q45 0 86 -12t80 -26l74 -25q37 -12 76 -14q47 0 78.5 28.5t37.5 67.5h119q-12 -94 -74.5 -169t-183.5 -75q-41 0 -79 11.5t-75 25.5 q-39 14 -76.5 25.5t-78.5 11.5q-51 0 -82 -25.5t-41 -66.5h-117z" />
<glyph unicode="&#xd6;" horiz-adv-x="1763" d="M113 684q0 313 199.5 512t570.5 199q377 0 571.5 -205t194.5 -516q0 -305 -201 -504t-565 -199q-377 0 -573.5 199t-196.5 514zM451 680q0 -23 2 -46.5t4 -45.5q23 -154 123 -281t303 -127q195 0 296 125t126 277q4 25 6 49t2 49q0 27 -2 55.5t-8 55.5 q-27 147 -129.5 270t-292.5 123q-199 0 -299.5 -127t-122.5 -279q-4 -25 -6 -49t-2 -49zM522 1493v229h258v-229h-258zM987 1493v229h254v-229h-254z" />
<glyph unicode="&#xd7;" d="M147 416l340 295l-340 295l146 124l338 -294l340 294l143 -124l-340 -295l340 -295l-143 -125l-340 295l-338 -295z" />
<glyph unicode="&#xd8;" horiz-adv-x="1763" d="M113 684q0 313 199.5 512t570.5 199q113 0 220 -22.5t202 -74.5l141 160l143 -98l-143 -160q88 -82 134 -186.5t60 -212.5q4 -33 6.5 -64.5t2.5 -62.5q0 -305 -201 -504t-565 -199q-31 0 -61.5 2t-63.5 4q-82 10 -164 32t-152 63l-147 -166l-143 96l151 172 q-88 88 -132 196.5t-54 223.5q-2 23 -3 45t-1 45zM451 680q0 -72 14 -143.5t47 -137.5l618 707q-51 39 -115.5 58.5t-131.5 19.5q-205 0 -305.5 -129t-120.5 -283l-4 -46t-2 -46zM623 264q53 -39 120.5 -61.5t137.5 -22.5q201 0 302 127t124 281l4 46t2 46q0 16 -1 33.5 t-3 34.5q-4 59 -20.5 116.5t-45.5 110.5z" />
<glyph unicode="&#xd9;" horiz-adv-x="1660" d="M188 539v825h318v-801q0 -150 66.5 -262.5t271.5 -112.5q199 0 259 116t62 255v8v8v789h308v-827q0 -276 -151 -421t-484 -145q-332 0 -491 138.5t-159 429.5zM485 1751h310l190 -285h-190z" />
<glyph unicode="&#xda;" horiz-adv-x="1660" d="M188 539v825h318v-801q0 -150 66.5 -262.5t271.5 -112.5q199 0 259 116t62 255v8v8v789h308v-827q0 -276 -151 -421t-484 -145q-332 0 -491 138.5t-159 429.5zM674 1464l188 287h312l-322 -287h-178z" />
<glyph unicode="&#xdb;" horiz-adv-x="1660" d="M188 539v825h318v-801q0 -150 66.5 -262.5t271.5 -112.5q199 0 259 116t62 255v8v8v789h308v-827q0 -276 -151 -421t-484 -145q-332 0 -491 138.5t-159 429.5zM467 1466l252 285h233l240 -285h-205l-153 170l-162 -170h-205z" />
<glyph unicode="&#xdc;" horiz-adv-x="1660" d="M188 539v825h318v-801q0 -150 66.5 -262.5t271.5 -112.5q199 0 259 116t62 255v8v8v789h308v-827q0 -276 -151 -421t-484 -145q-332 0 -491 138.5t-159 429.5zM471 1493v229h256v-229h-256zM936 1493v229h254v-229h-254z" />
<glyph unicode="&#xdd;" horiz-adv-x="655" />
<glyph unicode="&#xde;" horiz-adv-x="1290" d="M188 0v1366h318v-192h112h30h32q98 -4 194.5 -20.5t180.5 -68.5q90 -55 140 -142t50 -183q0 -100 -47 -192.5t-143 -153.5q-84 -55 -182.5 -71.5t-200.5 -18.5h-14h-15h-34q-17 0 -34 2h-35h-34v-326h-318zM502 539h42h42q123 4 225 40.5t102 174.5q0 129 -100 169 t-221 42h-8h-9h-73v-426z" />
<glyph unicode="&#xdf;" horiz-adv-x="1376" d="M154 0v952q0 238 132 387.5t425 149.5q207 0 354 -94.5t147 -288.5q0 -119 -79.5 -206t-214.5 -114v-6q170 -29 270 -118t100 -246q0 -205 -142 -317.5t-374 -112.5q-49 0 -97 6t-95 12l4 207q35 -2 66.5 -5t62.5 -3q123 0 196.5 64.5t73.5 168.5q0 143 -104.5 193.5 t-245.5 50.5v194q127 0 201.5 50.5t74.5 165.5q0 84 -50 144t-154 60q-129 0 -180.5 -79.5t-63.5 -176.5q-4 -37 -5 -73.5t-1 -67.5v-897h-301z" />
<glyph unicode="&#xe0;" horiz-adv-x="1267" d="M84 299q0 172 137 240.5t301 83.5q39 4 77 5t75 1q20 0 40.5 -1t41.5 -1q6 0 13 -1t13 -1q14 0 28.5 -1t27.5 -1q0 115 -62.5 169t-195.5 54h-21q-10 0 -20 -2q-86 -6 -170 -35t-150 -74l-10 228q96 35 198.5 52t206.5 17q25 0 51.5 -1t53.5 -5q92 -8 179 -41t142 -100 q39 -47 54.5 -104.5t17.5 -116.5q2 -16 2 -34v-34q0 -150 2 -298t10 -298h-268l-6 152q-57 -84 -154.5 -125t-208.5 -41q-168 0 -286.5 76.5t-118.5 236.5zM272 1456h310l190 -285h-190zM383 293q0 -63 56.5 -97t125.5 -34q141 0 208 90t71 197v7v5q-8 2 -18 2h-19h-37 q-31 0 -66.5 -1t-72.5 -3q-94 -10 -171 -44t-77 -122z" />
<glyph unicode="&#xe1;" horiz-adv-x="1267" d="M84 299q0 172 137 240.5t301 83.5q39 4 77 5t75 1q20 0 40.5 -1t41.5 -1q6 0 13 -1t13 -1q14 0 28.5 -1t27.5 -1q0 115 -62.5 169t-195.5 54h-21q-10 0 -20 -2q-86 -6 -170 -35t-150 -74l-10 228q96 35 198.5 52t206.5 17q25 0 51.5 -1t53.5 -5q92 -8 179 -41t142 -100 q39 -47 54.5 -104.5t17.5 -116.5q2 -16 2 -34v-34q0 -150 2 -298t10 -298h-268l-6 152q-57 -84 -154.5 -125t-208.5 -41q-168 0 -286.5 76.5t-118.5 236.5zM383 293q0 -63 56.5 -97t125.5 -34q141 0 208 90t71 197v7v5q-8 2 -18 2h-19h-37q-31 0 -66.5 -1t-72.5 -3 q-94 -10 -171 -44t-77 -122zM492 1171l188 287h311l-319 -287h-180z" />
<glyph unicode="&#xe2;" horiz-adv-x="1267" d="M84 299q0 172 137 240.5t301 83.5q39 4 77 5t75 1q20 0 40.5 -1t41.5 -1q6 0 13 -1t13 -1q14 0 28.5 -1t27.5 -1q0 115 -62.5 169t-195.5 54h-21q-10 0 -20 -2q-86 -6 -170 -35t-150 -74l-10 228q96 35 198.5 52t206.5 17q25 0 51.5 -1t53.5 -5q92 -8 179 -41t142 -100 q39 -47 54.5 -104.5t17.5 -116.5q2 -16 2 -34v-34q0 -150 2 -298t10 -298h-268l-6 152q-57 -84 -154.5 -125t-208.5 -41q-168 0 -286.5 76.5t-118.5 236.5zM268 1171l252 285h234l239 -285h-205l-151 170l-164 -170h-205zM383 293q0 -63 56.5 -97t125.5 -34q141 0 208 90 t71 197v7v5q-8 2 -18 2h-19h-37q-31 0 -66.5 -1t-72.5 -3q-94 -10 -171 -44t-77 -122z" />
<glyph unicode="&#xe3;" horiz-adv-x="1267" d="M84 299q0 172 137 240.5t301 83.5q39 4 77 5t75 1q20 0 40.5 -1t41.5 -1q6 0 13 -1t13 -1q14 0 28.5 -1t27.5 -1q0 115 -62.5 169t-195.5 54h-21q-10 0 -20 -2q-86 -6 -170 -35t-150 -74l-10 228q96 35 198.5 52t206.5 17q25 0 51.5 -1t53.5 -5q92 -8 179 -41t142 -100 q39 -47 54.5 -104.5t17.5 -116.5q2 -16 2 -34v-34q0 -150 2 -298t10 -298h-268l-6 152q-57 -84 -154.5 -125t-208.5 -41q-168 0 -286.5 76.5t-118.5 236.5zM229 1196q0 4 1 8t1 8q12 86 78 157t174 71q45 0 86 -12.5t80 -26.5l74 -25q37 -12 76 -14q47 0 78.5 28.5 t37.5 67.5h119q-12 -94 -74.5 -169t-183.5 -75q-41 0 -79 11.5t-74 25.5q-39 14 -77 25.5t-79 11.5q-51 0 -82 -25.5t-41 -66.5h-115zM383 293q0 -63 56.5 -97t125.5 -34q141 0 208 90t71 197v7v5q-8 2 -18 2h-19h-37q-31 0 -66.5 -1t-72.5 -3q-94 -10 -171 -44t-77 -122z " />
<glyph unicode="&#xe4;" horiz-adv-x="1267" d="M84 299q0 172 137 240.5t301 83.5q39 4 77 5t75 1q20 0 40.5 -1t41.5 -1q6 0 13 -1t13 -1q14 0 28.5 -1t27.5 -1q0 115 -62.5 169t-195.5 54h-21q-10 0 -20 -2q-86 -6 -170 -35t-150 -74l-10 228q96 35 198.5 52t206.5 17q25 0 51.5 -1t53.5 -5q92 -8 179 -41t142 -100 q39 -47 54.5 -104.5t17.5 -116.5q2 -16 2 -34v-34q0 -150 2 -298t10 -298h-268l-6 152q-57 -84 -154.5 -125t-208.5 -41q-168 0 -286.5 76.5t-118.5 236.5zM272 1219v229h258v-229h-258zM383 293q0 -63 56.5 -97t125.5 -34q141 0 208 90t71 197v7v5q-8 2 -18 2h-19h-37 q-31 0 -66.5 -1t-72.5 -3q-94 -10 -171 -44t-77 -122zM737 1219v229h254v-229h-254z" />
<glyph unicode="&#xe5;" horiz-adv-x="1267" d="M84 299q0 172 137 240.5t301 83.5q39 4 77 5t75 1q20 0 40.5 -1t41.5 -1q6 0 13 -1t13 -1q14 0 28.5 -1t27.5 -1q0 115 -62.5 169t-195.5 54h-21q-10 0 -20 -2q-86 -6 -170 -35t-150 -74l-10 228q96 35 198.5 52t206.5 17q25 0 51.5 -1t53.5 -5q92 -8 179 -41t142 -100 q39 -47 54.5 -104.5t17.5 -116.5q2 -16 2 -34v-34q0 -150 2 -298t10 -298h-268l-6 152q-57 -84 -154.5 -125t-208.5 -41q-168 0 -286.5 76.5t-118.5 236.5zM383 293q0 -63 56.5 -97t125.5 -34q141 0 208 90t71 197v7v5q-8 2 -18 2h-19h-37q-31 0 -66.5 -1t-72.5 -3 q-94 -10 -171 -44t-77 -122zM397 1339q0 84 70 143.5t164 59.5q96 0 164.5 -59.5t68.5 -143.5q0 -82 -68.5 -142t-164.5 -60q-94 0 -164 60t-70 142zM537 1339q0 -35 27.5 -59.5t66.5 -24.5q41 0 68.5 25t27.5 59q0 35 -27.5 58.5t-68.5 23.5q-39 0 -66.5 -23.5t-27.5 -58.5 z" />
<glyph unicode="&#xe6;" horiz-adv-x="2015" d="M84 309q0 150 123 215.5t272 83.5q45 6 91 8t87 2q49 0 99.5 -1t101.5 -5q-4 117 -82 171.5t-209 54.5q-96 0 -182 -27t-168 -68l-10 205q96 41 200.5 61.5t210.5 20.5q25 0 49.5 -1t49.5 -3q92 -10 177 -45t124 -115q66 90 169 127t222 37q324 0 421 -185.5t99 -422.5 h-780q14 -125 105.5 -184.5t230.5 -59.5h15h16q80 4 159.5 26.5t147.5 61.5l10 -215q-68 -25 -137.5 -39t-141.5 -20q-29 -4 -56.5 -5t-55.5 -1q-31 0 -65 2t-66 6q-104 12 -197.5 54t-138.5 126q-57 -98 -168 -140t-232 -48h-20h-20q-174 0 -312.5 77.5t-138.5 245.5z M397 295q0 -66 58.5 -102.5t130.5 -36.5q139 0 205.5 88t70.5 194v7v6q-16 2 -31.5 3t-29.5 1q-16 2 -32 2h-32q-29 0 -62.5 -2t-68.5 -6q-78 -12 -143.5 -46t-65.5 -108zM1147 604h475q-2 92 -55.5 169t-175.5 77q-100 0 -156.5 -62.5t-77.5 -138.5q-4 -10 -6 -21.5 t-4 -23.5z" />
<glyph unicode="&#xe7;" horiz-adv-x="1015" d="M88 512q0 229 163 369.5t425 140.5q68 0 131 -9t125 -24l-23 -211q-45 16 -92 24.5t-96 8.5q-147 0 -234.5 -89t-87.5 -210q0 -137 92.5 -222t247.5 -85q55 0 105.5 13t97.5 32l16 -221q-63 -14 -125.5 -24.5t-127.5 -10.5l-99 -127q25 6 49.5 9t49.5 3q72 0 128 -32.5 t56 -100.5q0 -82 -69.5 -127t-151.5 -55q-14 0 -26.5 -1t-25.5 -1q-61 0 -121.5 10t-117.5 33l43 80q39 -12 78 -22.5t80 -10.5q8 0 16 1t18 1q33 6 61.5 22.5t28.5 51.5q0 33 -27.5 49t-62.5 20h-7h-7q-25 0 -48.5 -4t-45.5 -12l-35 49l125 166q-242 27 -374 169t-132 347z " />
<glyph unicode="&#xe8;" horiz-adv-x="1259" d="M84 506q0 229 148.5 381.5t422.5 152.5q270 0 394.5 -156.5t124.5 -371.5q0 -12 -1.5 -23.5t-3.5 -21.5v-4v-4q-2 -10 -3 -18.5t-1 -18.5h-784q12 -123 110.5 -188.5t235.5 -65.5q100 0 189.5 29.5t173.5 72.5l6 -227q-82 -31 -171 -47t-180 -19q-12 -2 -25 -2h-26 q-287 0 -448.5 139.5t-161.5 391.5zM270 1456h310l190 -285h-190zM377 604h508q-2 96 -57.5 174t-182.5 78t-192.5 -76t-75.5 -176z" />
<glyph unicode="&#xe9;" horiz-adv-x="1259" d="M84 506q0 229 148.5 381.5t422.5 152.5q270 0 394.5 -156.5t124.5 -371.5q0 -12 -1.5 -23.5t-3.5 -21.5v-4v-4q-2 -10 -3 -18.5t-1 -18.5h-784q12 -123 110.5 -188.5t235.5 -65.5q100 0 189.5 29.5t173.5 72.5l6 -227q-82 -31 -171 -47t-180 -19q-12 -2 -25 -2h-26 q-287 0 -448.5 139.5t-161.5 391.5zM377 604h508q-2 96 -57.5 174t-182.5 78t-192.5 -76t-75.5 -176zM489 1171l189 287h311l-319 -287h-181z" />
<glyph unicode="&#xea;" horiz-adv-x="1259" d="M84 506q0 229 148.5 381.5t422.5 152.5q270 0 394.5 -156.5t124.5 -371.5q0 -12 -1.5 -23.5t-3.5 -21.5v-4v-4q-2 -10 -3 -18.5t-1 -18.5h-784q12 -123 110.5 -188.5t235.5 -65.5q100 0 189.5 29.5t173.5 72.5l6 -227q-82 -31 -171 -47t-180 -19q-12 -2 -25 -2h-26 q-287 0 -448.5 139.5t-161.5 391.5zM266 1171l252 285h234l239 -285h-205l-153 170l-162 -170h-205zM377 604h508q-2 96 -57.5 174t-182.5 78t-192.5 -76t-75.5 -176z" />
<glyph unicode="&#xeb;" horiz-adv-x="1259" d="M84 506q0 229 148.5 381.5t422.5 152.5q270 0 394.5 -156.5t124.5 -371.5q0 -12 -1.5 -23.5t-3.5 -21.5v-4v-4q-2 -10 -3 -18.5t-1 -18.5h-784q12 -123 110.5 -188.5t235.5 -65.5q100 0 189.5 29.5t173.5 72.5l6 -227q-82 -31 -171 -47t-180 -19q-12 -2 -25 -2h-26 q-287 0 -448.5 139.5t-161.5 391.5zM270 1217v229h258v-229h-258zM377 604h508q-2 96 -57.5 174t-182.5 78t-192.5 -76t-75.5 -176zM735 1217v229h254v-229h-254z" />
<glyph unicode="&#xec;" horiz-adv-x="608" d="M-57 1456h309l190 -285h-190zM154 0v1014h301v-1014h-301z" />
<glyph unicode="&#xed;" horiz-adv-x="608" d="M154 0v1014h301v-1014h-301zM166 1171l188 287h310l-320 -287h-178z" />
<glyph unicode="&#xee;" horiz-adv-x="608" d="M-59 1171l252 285h233l240 -285h-205l-152 170l-164 -170h-204zM154 0v1014h301v-1014h-301z" />
<glyph unicode="&#xef;" horiz-adv-x="608" d="M-53 1223v229h256v-229h-256zM154 0v1014h301v-1014h-301zM410 1223v229h254v-229h-254z" />
<glyph unicode="&#xf0;" horiz-adv-x="1382" d="M84 512q0 236 167 382t439 146h28q13 0 25 -2h14q7 0 13 -2q-45 47 -98.5 87t-116.5 73l-319 -180l-78 104l250 142q-76 27 -155 41t-161 22l51 117q115 -10 225.5 -25.5t217.5 -46.5l338 186l77 -104l-249 -141q258 -115 401 -340.5t143 -472.5q0 -240 -166.5 -381.5 t-441.5 -141.5q-279 0 -441.5 149.5t-162.5 387.5zM399 495q0 -9 2 -20q8 -115 75 -210t218 -95q139 0 206 87t79 192q2 14 3 28.5t1 28.5q0 18 -2 37l-4 37q-16 100 -85 184t-202 84q-127 0 -196.5 -83t-87.5 -183q-2 -16 -4.5 -35t-2.5 -35v-17z" />
<glyph unicode="&#xf1;" horiz-adv-x="1378" d="M154 1014h284l6 -162q74 92 169.5 135t224.5 43q256 0 327.5 -137t71.5 -322v-571h-301v510v37q0 18 -2 37q-6 86 -47 157.5t-164 71.5q-127 0 -181.5 -77t-68.5 -169q-4 -23 -5 -44t-1 -42v-481h-301v645q0 92 -3 184.5t-9 184.5zM285 1196q0 4 1 8t1 8q14 86 79.5 157 t172.5 71q45 0 87 -12.5t81 -26.5q2 0 3 -1l1 -1q35 -12 70.5 -23.5t72.5 -13.5q47 0 79 28.5t40 67.5h117q-12 -94 -74 -169t-182 -75q-41 0 -80 11.5t-76 25.5t-76 25.5t-80 11.5q-51 0 -81.5 -25.5t-41.5 -66.5h-114z" />
<glyph unicode="&#xf2;" horiz-adv-x="1382" d="M84 512q0 236 167 382t439 146q274 0 440 -153.5t166 -389t-167.5 -379t-440.5 -143.5q-276 0 -440 149.5t-164 387.5zM330 1456h309l190 -285h-190zM397 512q0 -14 1 -28.5t3 -28.5q12 -106 81 -196.5t212 -90.5q127 0 195.5 81t85.5 179q4 18 6 37.5t2 38.5 q0 16 -1 33.5t-5 33.5q-14 102 -83 188.5t-204 86.5q-129 0 -199.5 -83t-87.5 -183q-4 -18 -5 -35t-1 -33z" />
<glyph unicode="&#xf3;" horiz-adv-x="1382" d="M84 512q0 236 167 382t439 146q274 0 440 -153.5t166 -389t-167.5 -379t-440.5 -143.5q-276 0 -440 149.5t-164 387.5zM397 512q0 -14 1 -28.5t3 -28.5q12 -106 81 -196.5t212 -90.5q127 0 195.5 81t85.5 179q4 18 6 37.5t2 38.5q0 16 -1 33.5t-5 33.5q-14 102 -83 188.5 t-204 86.5q-129 0 -199.5 -83t-87.5 -183q-4 -18 -5 -35t-1 -33zM551 1171l188 287h312l-320 -287h-180z" />
<glyph unicode="&#xf4;" horiz-adv-x="1382" d="M84 512q0 236 167 382t439 146q274 0 440 -153.5t166 -389t-167.5 -379t-440.5 -143.5q-276 0 -440 149.5t-164 387.5zM328 1171l252 285h233l240 -285h-205l-154 170l-162 -170h-204zM397 512q0 -14 1 -28.5t3 -28.5q12 -106 81 -196.5t212 -90.5q127 0 195.5 81 t85.5 179q4 18 6 37.5t2 38.5q0 16 -1 33.5t-5 33.5q-14 102 -83 188.5t-204 86.5q-129 0 -199.5 -83t-87.5 -183q-4 -18 -5 -35t-1 -33z" />
<glyph unicode="&#xf5;" horiz-adv-x="1382" d="M84 512q0 236 167 382t439 146q274 0 440 -153.5t166 -389t-167.5 -379t-440.5 -143.5q-276 0 -440 149.5t-164 387.5zM287 1196q0 4 1 8t1 8q14 86 79.5 157t174.5 71q45 0 86 -12.5t80 -26.5l73 -25q37 -12 76 -14q47 0 78 28.5t39 67.5h119q-12 -94 -75 -169t-183 -75 q-39 0 -76 10.5t-72 24.5q-2 0 -4 1t-4 1q-37 14 -75 25.5t-81 11.5q-51 0 -80.5 -25.5t-40.5 -66.5h-116zM397 512q0 -14 1 -28.5t3 -28.5q12 -106 81 -196.5t212 -90.5q127 0 195.5 81t85.5 179q4 18 6 37.5t2 38.5q0 16 -1 33.5t-5 33.5q-14 102 -83 188.5t-204 86.5 q-129 0 -199.5 -83t-87.5 -183q-4 -18 -5 -35t-1 -33z" />
<glyph unicode="&#xf6;" horiz-adv-x="1382" d="M84 512q0 236 167 382t439 146q274 0 440 -153.5t166 -389t-167.5 -379t-440.5 -143.5q-276 0 -440 149.5t-164 387.5zM332 1217v229h258v-229h-258zM397 512q0 -14 1 -28.5t3 -28.5q12 -106 81 -196.5t212 -90.5q127 0 195.5 81t85.5 179q4 18 6 37.5t2 38.5 q0 16 -1 33.5t-5 33.5q-14 102 -83 188.5t-204 86.5q-129 0 -199.5 -83t-87.5 -183q-4 -18 -5 -35t-1 -33zM797 1217v229h254v-229h-254z" />
<glyph unicode="&#xf7;" d="M80 621v178h1100v-178h-1100zM498 250v219h262v-219h-262zM498 952v219h262v-219h-262z" />
<glyph unicode="&#xf8;" horiz-adv-x="1382" d="M84 512q0 236 167 383t439 147q86 0 169 -17t159 -56l139 145l127 -92l-139 -145q82 -76 116.5 -175.5t34.5 -201.5q0 -236 -167.5 -379.5t-440.5 -143.5q-88 0 -171 16.5t-159 55.5l-141 -149l-129 92l143 149q-78 78 -112.5 174.5t-34.5 196.5zM397 514q0 -45 6.5 -89 t20.5 -85l436 465q-37 23 -79 36t-89 13q-135 0 -204.5 -86t-86.5 -190q-2 -16 -3 -32t-1 -32zM518 215q37 -27 83 -39t93 -12q145 0 213 90t80 199q0 14 1 27.5t1 25.5q0 14 -1 29.5t-3 29.5q-2 31 -9 60.5t-20 58.5z" />
<glyph unicode="&#xf9;" horiz-adv-x="1368" d="M143 442v572h301v-488v-46q0 -24 2 -48q6 -86 47.5 -157.5t163.5 -71.5q117 0 168.5 72.5t65.5 158.5q4 27 6 53.5t2 51.5v475h303v-619q0 -20 1 -39.5t1 -40.5q2 -29 2 -58.5t2 -57.5q2 -51 4 -100.5t7 -98.5h-287l-8 156q-57 -82 -157.5 -126t-211.5 -44 q-254 0 -333 131.5t-79 324.5zM326 1456h307l190 -285h-190z" />
<glyph unicode="&#xfa;" horiz-adv-x="1368" d="M143 442v572h301v-488v-46q0 -24 2 -48q6 -86 47.5 -157.5t163.5 -71.5q117 0 168.5 72.5t65.5 158.5q4 27 6 53.5t2 51.5v475h303v-619q0 -20 1 -39.5t1 -40.5q2 -29 2 -58.5t2 -57.5q2 -51 4 -100.5t7 -98.5h-287l-8 156q-57 -82 -157.5 -126t-211.5 -44 q-254 0 -333 131.5t-79 324.5zM545 1171l188 287h309l-319 -287h-178z" />
<glyph unicode="&#xfb;" horiz-adv-x="1368" d="M143 442v572h301v-488v-46q0 -24 2 -48q6 -86 47.5 -157.5t163.5 -71.5q117 0 168.5 72.5t65.5 158.5q4 27 6 53.5t2 51.5v475h303v-619q0 -20 1 -39.5t1 -40.5q2 -29 2 -58.5t2 -57.5q2 -51 4 -100.5t7 -98.5h-287l-8 156q-57 -82 -157.5 -126t-211.5 -44 q-254 0 -333 131.5t-79 324.5zM324 1171l251 285h232l242 -285h-205l-154 170l-162 -170h-204z" />
<glyph unicode="&#xfc;" horiz-adv-x="1368" d="M143 442v572h301v-488v-46q0 -24 2 -48q6 -86 47.5 -157.5t163.5 -71.5q117 0 168.5 72.5t65.5 158.5q4 27 6 53.5t2 51.5v475h303v-619q0 -20 1 -39.5t1 -40.5q2 -29 2 -58.5t2 -57.5q2 -51 4 -100.5t7 -98.5h-287l-8 156q-57 -82 -157.5 -126t-211.5 -44 q-254 0 -333 131.5t-79 324.5zM326 1219v229h256v-229h-256zM788 1219v229h254v-229h-254z" />
<glyph unicode="&#xfd;" horiz-adv-x="655" />
<glyph unicode="&#xfe;" horiz-adv-x="1390" d="M166 -416v1891h303v-433q0 -47 -6 -93t-17 -93q74 86 166.5 131t218.5 45q248 0 360 -158.5t112 -353.5q0 -203 -109 -368.5t-377 -165.5h-5h-7q-100 2 -193.5 41t-146.5 116q2 -18 3 -37.5t1 -39.5v-40v-36v-406h-303zM469 504q0 -14 1 -27.5t3 -27.5q10 -96 69.5 -176 t188.5 -80q113 0 173.5 73.5t76.5 161.5q4 20 6 39.5t2 38.5q0 14 -1 29.5t-3 29.5q-10 94 -65.5 172t-182.5 78t-189.5 -80t-74.5 -176q-2 -14 -3 -27.5t-1 -27.5z" />
<glyph unicode="&#xff;" horiz-adv-x="1257" d="M20 1016h336l240 -619q6 -16 12 -33.5t13 -33.5l12 -36t12 -34q4 10 7 21.5t7 21.5q10 31 20.5 62.5t22.5 62.5l226 588h307l-465 -1086q-63 -143 -160.5 -249.5t-298.5 -106.5q-33 0 -64.5 3t-64.5 7l-41 8q-20 4 -43 9v-2l23 198q31 -8 62.5 -14t64.5 -6 q100 0 150.5 51t82.5 123zM268 1219v229h256v-229h-256zM733 1219v229h254v-229h-254z" />
<glyph unicode="&#x152;" horiz-adv-x="2160" d="M115 682q0 352 228 521t618 169q78 0 153.5 -1t153.5 -3q76 -2 152.5 -3t152.5 -1h438v-223h-586v-328h537v-225h-537v-365h598v-223h-702l-309 -4q-18 2 -36 2h-36q-88 2 -175 10t-171 33q-248 78 -363.5 249t-115.5 392zM442 688q0 -211 147.5 -344t393.5 -133h32 q15 0 32 2q14 0 30.5 1t30.5 3v926q-18 2 -35.5 3t-36.5 3q-18 0 -35.5 1t-35.5 1q-233 0 -378 -131t-145 -332z" />
<glyph unicode="&#x153;" horiz-adv-x="2152" d="M84 508q0 242 169 387t443 145q139 0 239.5 -38.5t180.5 -135.5q78 86 179.5 130t228.5 44q334 0 436 -184t106 -432h-782q10 -125 98 -190.5t230 -65.5q94 0 180 27.5t162 72.5l10 -221q-92 -33 -188.5 -52.5t-198.5 -19.5q-133 0 -250 35t-197 133q-80 -88 -186 -128 t-235 -40q-279 0 -452 142.5t-173 390.5zM397 493q0 -9 2 -20q8 -115 78 -210t219 -95q127 0 193.5 81t85.5 177q4 20 6 40.5t2 41.5q0 18 -2 38.5t-6 41.5q-18 96 -86 177t-195 81q-133 0 -204.5 -85t-88.5 -188q-2 -16 -3 -31.5t-1 -31.5v-17zM1284 606h471q0 6 -1 13.5 t-3 13.5q-12 82 -60.5 151.5t-164.5 69.5q-109 0 -169.5 -69.5t-70.5 -151.5q0 -6 -1 -13.5t-1 -13.5z" />
<glyph unicode="&#x178;" horiz-adv-x="1503" d="M20 1366h371l336 -510q10 -14 19.5 -30.5t17.5 -32.5q6 16 15 31.5t18 29.5l346 512h338l-568 -813v-553h-317v545zM393 1493v229h256v-229h-256zM858 1493v229h254v-229h-254z" />
<glyph unicode="&#x2c6;" horiz-adv-x="1177" d="M186 1196q0 4 1 8t1 8q14 86 79 157t173 71q45 0 86 -12.5t80 -26.5l74 -25q37 -12 76 -14q47 0 78.5 28.5t39.5 67.5h117q-12 -94 -73.5 -169t-182.5 -75q-41 0 -80 11.5t-75 25.5q-37 14 -76 25.5t-80 11.5q-51 0 -82 -25.5t-41 -66.5h-115z" />
<glyph unicode="&#x2dc;" horiz-adv-x="1177" d="M225 1171l252 285h234l241 -285h-204l-154 170l-164 -170h-205z" />
<glyph unicode="&#x2000;" horiz-adv-x="931" />
<glyph unicode="&#x2001;" horiz-adv-x="1865" />
<glyph unicode="&#x2002;" horiz-adv-x="931" />
<glyph unicode="&#x2003;" horiz-adv-x="1865" />
<glyph unicode="&#x2004;" horiz-adv-x="620" />
<glyph unicode="&#x2005;" horiz-adv-x="464" />
<glyph unicode="&#x2006;" horiz-adv-x="309" />
<glyph unicode="&#x2007;" horiz-adv-x="309" />
<glyph unicode="&#x2008;" horiz-adv-x="231" />
<glyph unicode="&#x2009;" horiz-adv-x="372" />
<glyph unicode="&#x200a;" horiz-adv-x="102" />
<glyph unicode="&#x2010;" horiz-adv-x="575" d="M0 403v220h575v-220h-575z" />
<glyph unicode="&#x2011;" horiz-adv-x="575" d="M0 403v220h575v-220h-575z" />
<glyph unicode="&#x2012;" horiz-adv-x="575" d="M0 403v220h575v-220h-575z" />
<glyph unicode="&#x2013;" d="M82 424v178h1096v-178h-1096z" />
<glyph unicode="&#x2014;" horiz-adv-x="1724" d="M0 424v178h1724v-178h-1724z" />
<glyph unicode="&#x2018;" horiz-adv-x="628" d="M78 985l201 490h260l-140 -490h-321z" />
<glyph unicode="&#x2019;" horiz-adv-x="628" d="M90 985l141 490h320l-197 -490h-264z" />
<glyph unicode="&#x201a;" horiz-adv-x="628" d="M90 -219l141 489h320l-197 -489h-264z" />
<glyph unicode="&#x201c;" horiz-adv-x="1089" d="M78 985l201 490h260l-140 -490h-321zM539 985l200 490h265l-142 -490h-323z" />
<glyph unicode="&#x201d;" horiz-adv-x="1089" d="M90 985l141 490h320l-197 -490h-264zM551 985l141 490h324l-201 -490h-264z" />
<glyph unicode="&#x201e;" horiz-adv-x="1089" d="M78 -221l141 491h320l-197 -491h-264zM539 -221l141 491h324l-201 -491h-264z" />
<glyph unicode="&#x2022;" horiz-adv-x="1413" d="M467 586q0 82 65.5 139t159.5 57q96 0 164 -57t68 -139t-68 -139.5t-164 -57.5q-94 0 -159.5 57.5t-65.5 139.5z" />
<glyph unicode="&#x2026;" horiz-adv-x="1884" d="M154 0v268h319v-268h-319zM782 0v268h320v-268h-320zM1409 0v268h320v-268h-320z" />
<glyph unicode="&#x202f;" horiz-adv-x="372" />
<glyph unicode="&#x2039;" horiz-adv-x="751" d="M109 512l262 399h284l-243 -399l250 -406h-285z" />
<glyph unicode="&#x203a;" horiz-adv-x="751" d="M90 106l246 406l-242 399h285l264 -399l-268 -406h-285z" />
<glyph unicode="&#x205f;" horiz-adv-x="464" />
<glyph unicode="&#x2122;" horiz-adv-x="2052" d="M2 1227v145h754v-145h-273v-639h-213v639h-268zM860 588v784h320l172 -407q6 -12 10 -24.5t10 -25.5q8 -25 16.5 -48t14.5 -50q10 29 19.5 58.5t19.5 56.5l182 440h326v-784h-211v461q2 35 3 70.5t1 70.5l-250 -602h-188l-207 485q-6 12 -11.5 25.5t-9.5 27.5 q-6 14 -11 27.5t-9 26.5q0 -14 1 -30.5t3 -31.5q0 -16 1 -31.5t1 -31.5v-467h-203z" />
<glyph unicode="&#xe000;" horiz-adv-x="1014" d="M0 1015h1015v-1015h-1015v1015z" />
<glyph unicode="&#xfb01;" horiz-adv-x="1372" d="M911 1198v248h312v-248h-312zM918 0v1014h301v-1014h-301zM-78 813v195h234v15v15q0 23 1 45.5t3 44.5q2 55 15 109.5t46 103.5q47 66 126 97.5t163 40.5q16 0 31.5 1t29.5 1q20 0 41 -1t41 -3t41 -7l41 -8l-18 -211q-12 4 -23.5 6.5t-21.5 4.5q-10 0 -21.5 1t-23.5 1 q-98 0 -131 -57.5t-37 -127.5q-2 -18 -2 -37v-34h264v-195h-264v-813h-301v813h-234z" />
<glyph unicode="&#xfb02;" horiz-adv-x="1370" d="M916 0v1475h301v-1475h-301zM-78 813v195h234v15v15q0 23 1 45.5t3 44.5q2 55 15 109.5t46 103.5q47 66 126 97.5t163 40.5q16 0 31.5 1t29.5 1q20 0 41 -1t41 -3t41 -7l41 -8l-18 -211q-12 4 -23.5 6.5t-21.5 4.5q-10 0 -21.5 1t-23.5 1q-98 0 -131 -57.5t-37 -127.5 q-2 -18 -2 -37v-34h264v-195h-264v-813h-301v813h-234z" />
<glyph unicode="&#xfb03;" horiz-adv-x="2136" d="M1675 1198v248h312v-248h-312zM1682 0v1014h301v-1014h-301zM686 813v195h234v15v15q0 23 1 45.5t3 44.5q2 55 15 109.5t46 103.5q47 66 126 97.5t163 40.5q16 0 31.5 1t29.5 1q20 0 41 -1t41 -3t41 -7l41 -8l-18 -211q-12 4 -23.5 6.5t-21.5 4.5q-10 0 -21.5 1t-23.5 1 q-98 0 -131 -57.5t-37 -127.5q-2 -18 -2 -37v-34h264v-195h-264v-813h-301v813h-234zM-78 813v195h234v15v15q0 23 1 45.5t3 44.5q2 55 15 109.5t46 103.5q47 66 126 97.5t163 40.5q16 0 31.5 1t29.5 1q20 0 41 -1t41 -3t41 -7l41 -8l-18 -211q-12 4 -23.5 6.5t-21.5 4.5 q-10 0 -21.5 1t-23.5 1q-98 0 -131 -57.5t-37 -127.5q-2 -18 -2 -37v-34h264v-195h-264v-813h-301v813h-234z" />
<glyph unicode="&#xfb04;" horiz-adv-x="2134" d="M1680 0v1475h301v-1475h-301zM686 813v195h234v15v15q0 23 1 45.5t3 44.5q2 55 15 109.5t46 103.5q47 66 126 97.5t163 40.5q16 0 31.5 1t29.5 1q20 0 41 -1t41 -3t41 -7l41 -8l-18 -211q-12 4 -23.5 6.5t-21.5 4.5q-10 0 -21.5 1t-23.5 1q-98 0 -131 -57.5t-37 -127.5 q-2 -18 -2 -37v-34h264v-195h-264v-813h-301v813h-234zM-78 813v195h234v15v15q0 23 1 45.5t3 44.5q2 55 15 109.5t46 103.5q47 66 126 97.5t163 40.5q16 0 31.5 1t29.5 1q20 0 41 -1t41 -3t41 -7l41 -8l-18 -211q-12 4 -23.5 6.5t-21.5 4.5q-10 0 -21.5 1t-23.5 1 q-98 0 -131 -57.5t-37 -127.5q-2 -18 -2 -37v-34h264v-195h-264v-813h-301v813h-234z" />
</font>
</defs>
</svg>
