<?xml version="1.0" standalone="no"?>
<!DOCTYPE svg PUBLIC "-//W3C//DTD SVG 1.1//EN" "http://www.w3.org/Graphics/SVG/1.1/DTD/svg11.dtd" >
<svg xmlns="http://www.w3.org/2000/svg">
<metadata>
This is a custom SVG webfont generated by Font Squirrel.
Copyright   : Copyright c 1988 Adobe Systems Incorporated  All Rights ReservedFrutiger is a registered trademark of Linotype AG andor its subsidiaries
</metadata>
<defs>
<font id="FrutigerLightRegular" horiz-adv-x="1138" >
<font-face units-per-em="2048" ascent="1638" descent="-410" />
<missing-glyph horiz-adv-x="569" />
<glyph unicode=" "  horiz-adv-x="569" />
<glyph unicode="&#x09;" horiz-adv-x="569" />
<glyph unicode="&#xa0;" horiz-adv-x="569" />
<glyph unicode="!" horiz-adv-x="796" d="M315 0v172h166v-172h-166zM315 1430h166l-24 -1084h-117z" />
<glyph unicode="&#x22;" d="M367 983v447h129v-447h-129zM643 983v447h129v-447h-129z" />
<glyph unicode="#" d="M70 449v110h227l45 311h-219v111h233l64 449h125l-64 -449h267l63 449h125l-64 -449h197v-111h-211l-43 -311h197v-110h-213l-64 -449h-125l64 449h-266l-64 -449h-125l64 449h-213zM424 559h266l43 311h-266z" />
<glyph unicode="$" d="M174 1081q0 143 98.5 241.5t253.5 123.5v133h105v-125q72 0 138.5 -10t137.5 -37l-22 -129q-94 53 -254 53v-543q164 -88 252 -176t88 -233q0 -164 -95.5 -261.5t-244.5 -129.5v-170h-105v159l-24 -2q-98 0 -178 16.5t-146 45.5l15 145q63 -41 142 -62.5t173 -21.5l18 2 v588q-172 94 -262 177t-90 216zM315 1085q0 -74 52.5 -127t158.5 -112v475q-92 -18 -151.5 -76t-59.5 -160zM631 117q94 27 146 94.5t52 179.5q0 70 -51 125t-147 113v-512z" />
<glyph unicode="%" horiz-adv-x="2048" d="M215 1061q0 174 79 278.5t245 104.5q162 0 242.5 -104.5t80.5 -278.5t-78.5 -278.5t-244.5 -104.5q-162 0 -243 104.5t-81 278.5zM344 1061q0 -115 44 -194t151 -79q104 0 149 81t45 192q0 115 -44 193.5t-150 78.5q-104 0 -149.5 -80.5t-45.5 -191.5zM541 -45l845 1520 h119l-846 -1520h-118zM1186 369q0 174 78.5 278.5t244.5 104.5q162 0 243 -104.5t81 -278.5t-79 -278.5t-245 -104.5q-162 0 -242.5 104.5t-80.5 278.5zM1315 369q0 -115 44 -194t150 -79q104 0 149.5 81t45.5 192q0 115 -44 193.5t-151 78.5q-104 0 -149 -80.5t-45 -191.5z " />
<glyph unicode="&#x26;" horiz-adv-x="1366" d="M102 375q0 156 90.5 255t247.5 161q-94 106 -140 179.5t-46 172.5q0 145 115.5 228t269.5 83q139 0 237.5 -75.5t98.5 -219.5q0 -176 -106.5 -249.5t-237.5 -139.5l377 -420q63 90 92.5 203t29.5 231h123q0 -143 -39.5 -276t-119.5 -240l243 -264h-180l-151 160 q-86 -96 -195 -142.5t-240 -46.5q-201 0 -335 100.5t-134 299.5zM244 381q0 -141 96 -218t235 -77q96 0 193.5 46t159.5 120l-416 459q-113 -45 -190.5 -132t-77.5 -198zM395 1135q0 -90 49.5 -156t112.5 -135q137 66 207 124t70 169q0 100 -55.5 153t-147.5 53 q-98 0 -167 -54t-69 -154z" />
<glyph unicode="'" horiz-adv-x="569" d="M221 983v447h129v-447h-129z" />
<glyph unicode="(" horiz-adv-x="569" d="M86 631q0 160 47 314.5t121 292.5t182 310h86q-98 -190 -160.5 -324t-104.5 -287t-42 -306q0 -160 41 -308.5t99.5 -274.5t166.5 -335h-86q-115 180 -185.5 312.5t-117.5 288t-47 317.5z" />
<glyph unicode=")" horiz-adv-x="569" d="M47 -287q98 190 160.5 324.5t104.5 287t42 306.5q0 160 -41 308t-99 274t-167 335h86q115 -180 185.5 -312t117.5 -287.5t47 -317.5q0 -160 -47 -314.5t-120.5 -293t-182.5 -310.5h-86z" />
<glyph unicode="*" d="M188 1112l35 119l301 -115l-14 314h119l-15 -314l297 115l39 -119l-301 -86l199 -244l-103 -77l-176 268l-172 -268l-100 77l192 244z" />
<glyph unicode="+" horiz-adv-x="1228" d="M94 449v141h449v448h141v-448h449v-141h-449v-449h-141v449h-449z" />
<glyph unicode="," horiz-adv-x="569" d="M111 -274l118 446h172l-161 -446h-129z" />
<glyph unicode="-" horiz-adv-x="681" d="M84 481v142h514v-142h-514z" />
<glyph unicode="." horiz-adv-x="569" d="M201 0v172h166v-172h-166z" />
<glyph unicode="/" horiz-adv-x="569" d="M-63 -25l555 1479h141l-555 -1479h-141z" />
<glyph unicode="0" d="M100 715q0 307 104.5 518t364.5 211q258 0 363.5 -213t105.5 -516q0 -393 -129 -561t-340 -168t-340 167t-129 562zM242 715q0 -252 65.5 -429t261.5 -177q197 0 262.5 179t65.5 427q0 252 -65.5 429t-262.5 177t-262 -179t-65 -427z" />
<glyph unicode="1" d="M252 1159l323 271h127v-1430h-141v1270l-231 -203z" />
<glyph unicode="2" d="M102 0v123l328 362q154 172 249 316.5t95 261.5q0 115 -71.5 186.5t-180.5 71.5q-92 0 -173 -25.5t-171 -76.5l-24 129q88 43 181 69.5t179 26.5q182 0 298 -94.5t116 -280.5q0 -109 -83 -260.5t-310 -402.5l-259 -283h685v-123h-859z" />
<glyph unicode="3" d="M102 43l17 135q80 -39 168 -54t176 -15q150 0 258 74.5t108 226.5q0 164 -114.5 217t-276.5 53h-131v123h37q207 0 346 55t139 232q0 113 -99 172t-228 59q-80 0 -161 -19.5t-159 -56.5l-12 133q80 29 171 47.5t175 18.5q193 0 324 -88t131 -266q0 -129 -81 -219.5 t-216 -122.5q137 -2 217 -102.5t80 -248.5q0 -190 -146.5 -300.5t-369.5 -110.5q-98 0 -183.5 13t-169.5 44z" />
<glyph unicode="4" d="M47 330v139l643 961h180v-977h211v-123h-211v-330h-141v330h-682zM176 453h553v835z" />
<glyph unicode="5" d="M176 37v145q68 -37 147.5 -55t157.5 -18q156 0 267.5 82.5t111.5 240.5q0 324 -358 324q-156 0 -309 -45l14 719h731v-123h-592l-10 -459q35 12 90 21.5t127 9.5q207 0 327.5 -111t120.5 -307q0 -231 -141 -353t-379 -122q-90 0 -159.5 11t-145.5 40z" />
<glyph unicode="6" d="M113 664q0 354 151.5 567t493.5 213q76 0 112.5 -7t116.5 -26l-12 -135q-100 45 -236 45q-256 0 -370.5 -171t-114.5 -423q55 86 146.5 131t193.5 45q176 0 310 -103.5t134 -342.5q0 -213 -125 -342t-342 -129q-258 0 -358 189.5t-100 488.5zM268 463q0 -145 79 -249.5 t228 -104.5q154 0 238 94t84 243q0 160 -77 247t-226 87q-152 0 -239 -87t-87 -230z" />
<glyph unicode="7" d="M119 1307v123h872v-123l-553 -1307h-155l569 1307h-733z" />
<glyph unicode="8" d="M94 367q0 154 84 235.5t246 140.5q-129 61 -207 148.5t-78 218.5q0 162 137.5 248t292.5 86q184 0 306 -84t122 -250q0 -121 -81.5 -209t-210.5 -158q172 -61 255.5 -140t83.5 -236q0 -195 -140 -288t-335 -93q-190 0 -332.5 98.5t-142.5 282.5zM236 367 q0 -115 101 -186.5t232 -71.5q139 0 236.5 66.5t97.5 203.5q0 92 -51 142t-283 169q-174 -72 -253.5 -132t-79.5 -191zM281 1098q0 -129 94 -191.5t194 -111.5q131 63 209 132.5t78 170.5q0 106 -87 164.5t-200 58.5q-121 0 -204.5 -58.5t-83.5 -164.5z" />
<glyph unicode="9" d="M100 973q0 213 125 342t342 129q258 0 358.5 -189.5t100.5 -488.5q0 -354 -151.5 -567t-493.5 -213q-76 0 -113 7t-116 25l12 136q100 -45 235 -45q256 0 371 171t115 422q-55 -86 -146.5 -131t-193.5 -45q-176 0 -310.5 103.5t-134.5 343.5zM242 983q0 -160 76.5 -247 t226.5 -87q152 0 238.5 87t86.5 231q0 145 -78.5 249.5t-228.5 104.5q-154 0 -237.5 -94t-83.5 -244z" />
<glyph unicode=":" horiz-adv-x="569" d="M201 0v172h166v-172h-166zM201 872v172h166v-172h-166z" />
<glyph unicode=";" horiz-adv-x="569" d="M111 -274l118 446h172l-161 -446h-129zM201 872v172h166v-172h-166z" />
<glyph unicode="&#x3c;" horiz-adv-x="1228" d="M94 455v127l1039 471v-135l-881 -400l881 -399v-135z" />
<glyph unicode="=" horiz-adv-x="1228" d="M94 242v141h1039v-141h-1039zM94 653v142h1039v-142h-1039z" />
<glyph unicode="&#x3e;" horiz-adv-x="1228" d="M96 -16v135l883 399l-883 400v135l1039 -471v-127z" />
<glyph unicode="?" horiz-adv-x="1024" d="M176 1403q86 25 155.5 38t143.5 13q170 0 281.5 -92t111.5 -275q0 -141 -90 -260q-84 -98 -168 -194q-92 -121 -92 -256v-31h-129v27q0 158 86 278l164 189q88 115 88 247q0 111 -72.5 177.5t-185.5 66.5q-80 0 -131 -11t-156 -46zM373 0v172h166v-172h-166z" />
<glyph unicode="@" horiz-adv-x="1638" d="M82 715q0 301 194.5 520t544.5 219q291 0 509 -166t218 -452q0 -242 -155.5 -402t-307.5 -160q-137 0 -161 125q-55 -59 -109.5 -92t-146.5 -33q-119 0 -198 89.5t-79 218.5q0 213 134 384t339 171q76 0 133.5 -38t92.5 -120l43 123h129l-175 -557q-20 -57 -20 -101 q0 -20 11.5 -33.5t33.5 -13.5q119 0 210 130t91 309q0 227 -174 361t-418 134q-258 0 -431 -175t-173 -439q0 -268 171 -443.5t433 -175.5q170 0 311.5 60.5t229.5 167.5h125q-96 -166 -270.5 -258.5t-395.5 -92.5q-346 0 -542.5 220.5t-196.5 519.5zM545 594 q0 -92 40 -144.5t107 -52.5q137 0 236.5 144.5t99.5 287.5q0 98 -48 141.5t-116 43.5q-109 0 -214 -123t-105 -297z" />
<glyph unicode="A" horiz-adv-x="1366" d="M27 0l585 1430h160l567 -1430h-147l-154 383h-721l-153 -383h-137zM371 506h620l-309 788z" />
<glyph unicode="B" d="M164 0v1430h340q201 0 326.5 -80t125.5 -273q0 -274 -260 -325q139 -29 221 -117t82 -227q0 -217 -152.5 -312.5t-397.5 -95.5h-285zM305 123h148q174 0 289.5 61.5t115.5 216.5q0 172 -114.5 226.5t-313.5 54.5h-125v-559zM309 805h158q143 0 245.5 56.5t102.5 209.5 q0 137 -94 186.5t-217 49.5h-195v-502z" />
<glyph unicode="C" horiz-adv-x="1366" d="M117 715q0 330 196.5 534.5t524.5 204.5q90 0 181 -12t146 -41l-8 -131q-57 31 -148 46t-171 15q-272 0 -426 -171t-154 -445q0 -276 151.5 -446.5t428.5 -170.5q86 0 175 14.5t144 47.5l8 -123q-49 -31 -149.5 -46.5t-177.5 -15.5q-334 0 -527.5 202t-193.5 538z" />
<glyph unicode="D" horiz-adv-x="1366" d="M164 0v1430h354q369 0 542 -190.5t173 -522.5q0 -371 -220 -544t-599 -173h-250zM305 123h117q322 0 496 142.5t174 459.5q0 307 -159 444.5t-421 137.5h-207v-1184z" />
<glyph unicode="E" horiz-adv-x="1024" d="M176 0v1430h701v-123h-560v-510h531v-123h-531v-551h584v-123h-725z" />
<glyph unicode="F" horiz-adv-x="909" d="M158 0v1430h680v-123h-539v-510h514v-123h-514v-674h-141z" />
<glyph unicode="G" horiz-adv-x="1478" d="M131 715q0 330 196.5 534.5t524.5 204.5q100 0 206.5 -16.5t176.5 -51.5l-16 -131q-78 43 -168 59.5t-199 16.5q-272 0 -426 -171t-154 -445q0 -276 151.5 -446.5t428.5 -170.5q80 0 169 11.5t134 40.5v501h-332v123h473v-711q-106 -47 -214.5 -67.5t-229.5 -20.5 q-334 0 -527.5 202t-193.5 538z" />
<glyph unicode="H" horiz-adv-x="1366" d="M180 0v1430h142v-633h722v633h142v-1430h-142v674h-722v-674h-142z" />
<glyph unicode="I" horiz-adv-x="454" d="M158 0v1430h141v-1430h-141z" />
<glyph unicode="J" horiz-adv-x="681" d="M29 0v125q27 -14 61.5 -20.5t71.5 -6.5q111 0 160 74t49 193v1065h141v-1061q0 -176 -83 -285t-253 -109q-81 0 -147 25z" />
<glyph unicode="K" horiz-adv-x="1251" d="M195 0v1430h141v-642l643 642h184l-692 -674l752 -756h-195l-692 715v-715h-141z" />
<glyph unicode="L" horiz-adv-x="909" d="M164 0v1430h141v-1307h574v-123h-715z" />
<glyph unicode="M" horiz-adv-x="1820" d="M176 0v1430h219l523 -1258l524 1258h203v-1430h-142v1288l-524 -1288h-121l-536 1288l-5 -1288h-141z" />
<glyph unicode="N" horiz-adv-x="1366" d="M158 0v1430h178l727 -1258l4 1258h141v-1430h-190l-715 1233l-4 -1233h-141z" />
<glyph unicode="O" horiz-adv-x="1478" d="M111 715q0 313 160.5 526t467.5 213q305 0 467 -213t162 -526q0 -338 -163 -539t-466 -201t-465.5 201t-162.5 539zM252 715q0 -252 125 -434.5t362 -182.5q236 0 362 183.5t126 433.5q0 252 -125 434t-363 182q-236 0 -361.5 -183t-125.5 -433z" />
<glyph unicode="P" horiz-adv-x="1024" d="M176 0v1430h352q207 0 325 -103.5t118 -302.5q0 -195 -127 -300.5t-330 -105.5h-197v-618h-141zM317 741h99q254 0 333.5 72t79.5 211q0 135 -73.5 209t-208.5 74h-230v-566z" />
<glyph unicode="Q" horiz-adv-x="1478" d="M111 715q0 313 160.5 526t467.5 213q305 0 467 -213t162 -526q0 -256 -95 -436.5t-276 -253.5l301 -291h-188l-254 252q-25 -6 -52.5 -8.5t-64.5 -2.5q-303 0 -465.5 201t-162.5 539zM252 715q0 -252 125 -434.5t362 -182.5q236 0 362 183.5t126 433.5q0 252 -125 434 t-363 182q-236 0 -361.5 -183t-125.5 -433z" />
<glyph unicode="R" d="M180 0v1430h369q199 0 309.5 -90.5t110.5 -280.5q0 -135 -90.5 -223t-227.5 -107q61 -10 97 -37.5t88 -138.5l243 -553h-155l-207 483q-57 127 -110.5 159t-168.5 32h-116v-674h-142zM322 797h149q145 0 250.5 62.5t105.5 199.5q0 158 -90 203t-270 45h-145v-510z" />
<glyph unicode="S" horiz-adv-x="1024" d="M119 1081q0 168 129 270.5t323 102.5q90 0 156 -12t125 -35l-23 -129q-43 25 -114.5 39t-145.5 14q-127 0 -218 -59.5t-91 -186.5q0 -115 164 -212t321 -189q170 -127 170 -305q0 -199 -140 -301.5t-329 -102.5q-98 0 -178 16.5t-145 45.5l14 145q63 -41 142 -62.5 t174 -21.5q141 0 231 74t90 219q0 113 -164 212t-321 194q-170 124 -170 284z" />
<glyph unicode="T" horiz-adv-x="1024" d="M20 1307v123h986v-123h-422v-1307h-142v1307h-422z" />
<glyph unicode="U" horiz-adv-x="1366" d="M166 500v930h141v-930q0 -182 97.5 -292t279.5 -110q180 0 278.5 110.5t98.5 291.5v930h141v-930q0 -283 -158.5 -404t-359.5 -121t-359.5 120t-158.5 405z" />
<glyph unicode="V" horiz-adv-x="1251" d="M12 1430h150l461 -1289l477 1289h139l-543 -1430h-151z" />
<glyph unicode="W" horiz-adv-x="1933" d="M18 1430h146l352 -1270l371 1270h170l360 -1270l363 1270h135l-414 -1430h-168l-362 1270l-373 -1270h-170z" />
<glyph unicode="X" horiz-adv-x="1251" d="M14 0l533 752l-479 678h165l402 -578l405 578h158l-481 -678l520 -752h-172l-436 651l-453 -651h-162z" />
<glyph unicode="Y" horiz-adv-x="1251" d="M25 1430h163l437 -699l448 699h154l-531 -824v-606h-141v606z" />
<glyph unicode="Z" horiz-adv-x="1024" d="M43 0v123l745 1184h-727v123h877v-123l-741 -1184h766v-123h-920z" />
<glyph unicode="[" horiz-adv-x="569" d="M141 -287v1835h332v-98h-203v-1638h203v-99h-332z" />
<glyph unicode="\" horiz-adv-x="569" d="M-63 1454h141l555 -1479h-141z" />
<glyph unicode="]" horiz-adv-x="569" d="M96 -188h203v1638h-203v98h332v-1835h-332v99z" />
<glyph unicode="^" horiz-adv-x="1228" d="M102 543l447 887h131l446 -887h-145l-367 745l-366 -745h-146z" />
<glyph unicode="_" horiz-adv-x="1024" d="M0 -154h1024v-102h-1024v102z" />
<glyph unicode="`" horiz-adv-x="454" d="M-8 1466h162l190 -295h-94z" />
<glyph unicode="a" horiz-adv-x="1024" d="M82 270q0 231 180 299t463 68h25v53q0 137 -55.5 202.5t-182.5 65.5q-172 0 -307 -86v125q63 31 148 51.5t159 20.5q195 0 281 -92t86 -297v-461q0 -57 1 -106.5t9 -112.5h-127v168q-45 -90 -138.5 -141.5t-197.5 -51.5q-195 0 -269.5 94.5t-74.5 200.5zM223 274 q0 -96 59.5 -142t157.5 -46q152 0 231 90t79 287v63h-37q-285 0 -387.5 -65.5t-102.5 -186.5z" />
<glyph unicode="b" d="M150 0v1536h129v-668q29 63 112.5 132t216.5 69q219 0 324.5 -147.5t105.5 -399.5q0 -244 -110.5 -395.5t-319.5 -151.5q-225 0 -325 191l-4 -166h-129zM279 522q0 -170 75.5 -303t233.5 -133q166 0 237.5 127t71.5 309q0 184 -69.5 310t-239.5 126q-160 0 -234.5 -133 t-74.5 -303z" />
<glyph unicode="c" horiz-adv-x="909" d="M84 522q0 242 142.5 394.5t373.5 152.5q88 0 139.5 -10t112.5 -31l-10 -123q-59 27 -113.5 40t-110.5 13q-184 0 -288.5 -120.5t-104.5 -315.5q0 -184 103.5 -310t275.5 -126q109 0 236 47l12 -121q-55 -20 -125 -28.5t-143 -8.5q-240 0 -370 158t-130 389z" />
<glyph unicode="d" d="M100 522q0 254 103.5 400.5t326.5 146.5q133 0 218.5 -69.5t107.5 -131.5l4 668h129v-1536h-129v166q-55 -100 -134 -145.5t-196 -45.5q-207 0 -318.5 152.5t-111.5 394.5zM242 522q0 -184 69.5 -310t239.5 -126q156 0 232.5 133t76.5 303t-75.5 303t-233.5 133 q-166 0 -237.5 -127t-71.5 -309z" />
<glyph unicode="e" horiz-adv-x="1024" d="M84 522q0 242 122 394.5t318 152.5q209 0 312.5 -145.5t103.5 -372.5v-66h-715q0 -174 89 -286.5t255 -112.5q68 0 158 24.5t135 53.5v-131q-68 -27 -146.5 -42.5t-156.5 -15.5q-246 0 -360.5 148.5t-114.5 398.5zM225 596h574q0 154 -64.5 258t-202.5 104 q-135 0 -221 -111.5t-86 -250.5z" />
<glyph unicode="f" horiz-adv-x="681" d="M39 934v110h211v76q0 217 48 329t228 112q37 0 70 -4.5t51 -16.5l-8 -113q-41 23 -102 23q-100 0 -129 -69.5t-29 -188.5v-57v-91h235v-110h-235v-934h-129v934h-211z" />
<glyph unicode="g" d="M100 522q0 254 103.5 400.5t326.5 146.5q115 0 186.5 -27.5t139.5 -115.5l4 118h129v-958q0 -238 -116.5 -383t-372.5 -145q-90 0 -161 14t-155 41l11 129q59 -31 144 -52.5t163 -21.5q225 0 292.5 134.5t67.5 402.5q-53 -111 -133 -158t-188 -47q-227 0 -334 158.5 t-107 363.5zM242 522q0 -172 73.5 -291.5t227.5 -119.5q162 0 239.5 122.5t77.5 288.5q0 207 -70.5 321.5t-238.5 114.5q-166 0 -237.5 -127t-71.5 -309z" />
<glyph unicode="h" d="M162 0v1536h129v-668q47 90 132 145.5t198 55.5q197 0 276.5 -116.5t79.5 -327.5v-625h-129v623q0 160 -50 247.5t-198 87.5q-158 0 -233.5 -120.5t-75.5 -278.5v-559h-129z" />
<glyph unicode="i" horiz-adv-x="454" d="M162 0v1044h129v-1044h-129zM162 1323v172h129v-172h-129z" />
<glyph unicode="j" horiz-adv-x="454" d="M-57 -319q37 -12 77 -13q72 0 107 37t35 164v1175h129v-1191q0 -139 -51.5 -217t-184.5 -78q-51 0 -76.5 4t-35.5 6v113zM162 1323v172h129v-172h-129z" />
<glyph unicode="k" horiz-adv-x="1024" d="M162 0v1536h129v-920l467 428h166l-510 -462l571 -582h-178l-516 537v-537h-129z" />
<glyph unicode="l" horiz-adv-x="454" d="M162 0v1536h129v-1536h-129z" />
<glyph unicode="m" horiz-adv-x="1705" d="M154 1044h125v-176q61 96 123.5 148.5t205.5 52.5q92 0 173 -49t104 -172q39 94 130 157.5t208 63.5q154 0 241.5 -96t87.5 -254v-719h-129v694q0 121 -51 192.5t-170 71.5q-115 0 -197.5 -98t-82.5 -282v-578h-129v694q0 121 -51.5 192.5t-170.5 71.5q-115 0 -197.5 -98 t-82.5 -282v-578h-129v799v61v113q-6 48 -8 71z" />
<glyph unicode="n" d="M154 1044h125v-186q47 94 120.5 152.5t221.5 58.5q182 0 269 -108.5t87 -292.5v-668h-129v635q0 158 -58.5 240.5t-189.5 82.5q-160 0 -234.5 -114.5t-74.5 -265.5v-578h-129v799v61v113q-6 48 -8 71z" />
<glyph unicode="o" d="M82 522q0 231 124 389t363 158q240 0 364 -156.5t124 -390.5q0 -231 -124 -389t-364 -158t-363.5 157t-123.5 390zM223 522q0 -190 91.5 -313t254.5 -123q164 0 255 123t91 313t-91 313t-255 123t-255 -123t-91 -313z" />
<glyph unicode="p" d="M150 -430v1474h129l-9 -190q63 96 129 155.5t209 59.5q219 0 324.5 -147.5t105.5 -399.5q0 -244 -110.5 -395.5t-319.5 -151.5q-229 0 -325 203l-4 -608h-129zM279 522q0 -170 75.5 -303t233.5 -133q166 0 237.5 127t71.5 309q0 184 -69.5 310t-239.5 126 q-156 0 -232.5 -133t-76.5 -303z" />
<glyph unicode="q" d="M100 522q0 254 103.5 400.5t326.5 146.5q141 0 206 -56.5t120 -138.5l4 170h129v-1474h-129v608q-51 -104 -129 -153.5t-201 -49.5q-207 0 -318.5 152.5t-111.5 394.5zM242 522q0 -184 69.5 -310t239.5 -126q156 0 232.5 133t76.5 303t-75.5 303t-233.5 133 q-166 0 -237.5 -127t-71.5 -309z" />
<glyph unicode="r" horiz-adv-x="681" d="M154 1044h129v-200q43 98 110.5 161.5t161.5 63.5q20 0 48 -4t42 -8v-135q-41 12 -94 12q-139 0 -199.5 -123t-60.5 -295v-516h-129v811v74v24v84q-6 33 -8 51z" />
<glyph unicode="s" horiz-adv-x="796" d="M70 25l12 127q61 -31 130 -48.5t142 -17.5q98 0 165 49t67 137q0 100 -129 174q-121 61 -242 125q-131 86 -131 213q0 145 98.5 215t241.5 70q49 0 120.5 -11t137.5 -36l-12 -113q-53 25 -111.5 37t-120.5 12q-106 0 -165.5 -39.5t-59.5 -134.5q0 -76 183.5 -168 t257 -145t73.5 -199q0 -152 -111.5 -224.5t-253.5 -72.5q-82 0 -152 11.5t-140 38.5z" />
<glyph unicode="t" horiz-adv-x="681" d="M41 934v110h205v252l129 45v-297h237v-110h-237v-676q0 -80 31.5 -126t107.5 -46q37 0 60.5 5t58.5 20l8 -107q-25 -10 -70 -19.5t-88 -9.5q-156 0 -196.5 85t-40.5 264v610h-205z" />
<glyph unicode="u" d="M162 377v667h129v-634q0 -158 58.5 -241t189.5 -83q160 0 234.5 114.5t74.5 266.5v577h129v-798q0 -61 1 -118.5t7 -127.5h-125v186q-47 -94 -120.5 -152.5t-221.5 -58.5q-182 0 -269 109t-87 293z" />
<glyph unicode="v" horiz-adv-x="909" d="M18 1044h142l289 -903l307 903h135l-367 -1044h-151z" />
<glyph unicode="w" horiz-adv-x="1593" d="M14 1044h142l274 -903l295 903h156l276 -903l293 903h129l-344 -1044h-156l-284 903l-289 -903h-156z" />
<glyph unicode="x" horiz-adv-x="909" d="M16 0l367 553l-332 491h160l248 -389l252 389h147l-323 -491l358 -553h-160l-274 451l-293 -451h-150z" />
<glyph unicode="y" horiz-adv-x="909" d="M18 1044h142l293 -872l2 2l301 870h135l-418 -1200q-45 -133 -106.5 -209.5t-161.5 -76.5q-70 0 -139 16l12 111q18 -6 43.5 -11.5t52.5 -5.5q78 0 115 52.5t73 175.5l27 92z" />
<glyph unicode="z" horiz-adv-x="909" d="M66 0v109l628 825h-604v110h754v-110l-629 -823h629v-111h-778z" />
<glyph unicode="{" horiz-adv-x="569" d="M78 582v98q80 0 120 77t40 199v344q0 115 58 181.5t150 66.5h113v-98h-102q-47 0 -68.5 -54.5t-21.5 -135.5v-338q0 -129 -58.5 -202t-113.5 -87q55 -18 113.5 -91t58.5 -206v-332q0 -82 22.5 -137t67.5 -55h102v-99h-115q-88 0 -147 67.5t-59 182.5v348q0 121 -40 196 t-120 75z" />
<glyph unicode="|" horiz-adv-x="454" d="M158 -25v1561h141v-1561h-141z" />
<glyph unicode="}" horiz-adv-x="569" d="M10 -188h103q47 0 68.5 54t21.5 136v338q0 129 58 201.5t114 87.5q-55 18 -113.5 91t-58.5 206v331q0 82 -22.5 137.5t-67.5 55.5h-103v98h115q88 0 147.5 -67.5t59.5 -182.5v-348q0 -121 40 -195.5t120 -74.5v-98q-80 0 -120 -77t-40 -200v-344q0 -115 -58.5 -181.5 t-150.5 -66.5h-113v99z" />
<glyph unicode="~" horiz-adv-x="1228" d="M141 477q43 82 102.5 134.5t153.5 52.5q51 0 104.5 -18.5t121 -52.5t118 -56.5t93.5 -22.5q53 0 94 39t86 111l73 -105q-43 -82 -102 -134t-154 -52q-45 0 -83.5 11t-140 59.5t-138.5 63.5t-74 15q-53 0 -94 -39t-86 -110z" />
<glyph unicode="&#xa1;" horiz-adv-x="796" d="M315 -385l25 1083h117l24 -1083h-166zM315 872v172h166v-172h-166z" />
<glyph unicode="&#xa2;" d="M203 522q0 242 142 394.5t374 152.5q47 0 69 -4l46 139h96l-51 -151q20 -4 43.5 -10.5t48.5 -14.5l-10 -123q-49 23 -117 39l-275 -823q74 -35 154 -35q109 0 235 47l13 -121q-55 -20 -125 -28.5t-144 -8.5q-98 0 -172 29l-63 -190h-96l75 225q-117 66 -180 195.5 t-63 287.5zM344 522q0 -229 145 -352l263 786l-15 2q-184 0 -288.5 -120.5t-104.5 -315.5z" />
<glyph unicode="&#xa3;" d="M137 0v123h211v588h-186v110h186v101q0 229 99.5 375.5t349.5 146.5q74 0 136 -13.5t93 -29.5l-20 -127q-33 20 -83.5 33.5t-125.5 13.5q-184 0 -246 -115.5t-62 -296.5v-88h340v-110h-340v-588h504v-123h-856z" />
<glyph unicode="&#xa4;" d="M55 289l117 112q-111 139 -111 314q0 88 27 167t84 142l-117 113l88 92l117 -115q61 51 144 80t165 29q178 0 312 -109l110 115l92 -92l-110 -113q51 -59 77.5 -142t26.5 -167q0 -90 -25.5 -169t-78.5 -145l110 -112l-92 -88l-110 114q-61 -55 -139 -81.5t-173 -26.5 q-86 0 -166.5 26.5t-142.5 81.5l-117 -114zM203 715q0 -166 105.5 -275.5t260.5 -109.5q160 0 263.5 113.5t103.5 271.5q0 156 -104.5 270.5t-262.5 114.5q-154 0 -260 -114.5t-106 -270.5z" />
<glyph unicode="&#xa5;" d="M39 1430h156l374 -691l385 691h146l-398 -709h234v-98h-289l-6 -13v-153h295v-99h-295v-358h-141v358h-295v99h295v153l-6 13h-289v98h233z" />
<glyph unicode="&#xa7;" d="M182 635q0 74 44 136.5t118 127.5l18 16l-14 9q-72 41 -112.5 94t-40.5 129q0 154 113.5 230.5t256.5 76.5q86 0 160 -12t137 -33l-14 -119q-35 18 -108.5 35.5t-135.5 17.5q-94 0 -181 -44t-87 -130q0 -109 152.5 -181.5t302.5 -139.5q160 -94 159 -244 q0 -84 -36.5 -140t-116.5 -138q70 -39 114.5 -99.5t44.5 -142.5q0 -172 -138 -251t-277 -79q-180 0 -346 58l14 120q76 -35 161 -51t171 -16q104 0 189 56t85 159q0 100 -157.5 168.5t-309.5 134.5q-166 96 -166 252zM324 643q0 -53 33.5 -94t99.5 -70l239 -104l43 43 q37 37 57.5 75.5t20.5 86.5q0 78 -44 119.5t-132 82.5l-178 84l-14 -8q-39 -23 -82 -85t-43 -130z" />
<glyph unicode="&#xa8;" horiz-adv-x="454" d="M-25 1237v172h154v-172h-154zM326 1237v172h153v-172h-153z" />
<glyph unicode="&#xa9;" horiz-adv-x="1638" d="M80 715q0 305 217 522t522 217t522.5 -217t217.5 -522t-217.5 -522.5t-522.5 -217.5t-522 217.5t-217 522.5zM221 715q0 -266 171 -447.5t429 -181.5q256 0 426 180t170 449q0 266 -171 447t-425 181q-258 0 -429 -181t-171 -447zM403 715q0 205 117 334t320 129 q145 0 246.5 -80t121.5 -230h-123q-18 90 -82.5 144.5t-160.5 54.5q-141 0 -219 -96.5t-78 -253.5q0 -150 82 -251t219 -101q94 0 158.5 57t80.5 151h125q-31 -147 -129 -233t-235 -86q-197 0 -320 131t-123 330z" />
<glyph unicode="&#xaa;" horiz-adv-x="665" d="M49 981q0 143 118 185t304 42h16v31q0 53 -27.5 91t-117.5 38q-59 0 -104 -10t-97 -39v94q43 16 99.5 28.5t113.5 12.5q123 0 180.5 -59.5t57.5 -173.5v-277v-64q0 -30 6 -69h-102v98q-27 -53 -84.5 -83.5t-126.5 -30.5q-123 0 -179.5 49t-56.5 137zM154 991 q0 -55 39.5 -82.5t101.5 -27.5q127 0 159.5 61.5t32.5 142.5v37h-24q-127 0 -218 -28.5t-91 -102.5z" />
<glyph unicode="&#xab;" d="M186 551l287 420h121l-272 -420l272 -420h-121zM545 551l286 420h121l-272 -420l272 -420h-121z" />
<glyph unicode="&#xac;" horiz-adv-x="1228" d="M94 653v142h1039v-562h-142v420h-897z" />
<glyph unicode="&#xad;" horiz-adv-x="681" d="M84 481v142h514v-142h-514z" />
<glyph unicode="&#xae;" horiz-adv-x="1638" d="M80 715q0 305 217 522t522 217t522.5 -217t217.5 -522t-217.5 -522.5t-522.5 -217.5t-522 217.5t-217 522.5zM221 715q0 -266 171 -447.5t429 -181.5q256 0 426 180t170 449q0 266 -171 447t-425 181q-258 0 -429 -181t-171 -447zM537 283v866h331q297 0 297 -244 q0 -106 -60.5 -172.5t-162.5 -66.5l246 -383h-150l-241 383h-119v-383h-141zM678 776h168q90 0 134 27.5t44 107.5q0 68 -50 97.5t-128 29.5h-168v-262z" />
<glyph unicode="&#xaf;" horiz-adv-x="569" d="M-250 122v111h500v-111h-500z" />
<glyph unicode="&#xb0;" horiz-adv-x="819" d="M86 1139q0 131 95 218t229 87q135 0 229 -85t94 -220q0 -131 -95 -218t-228 -87q-135 0 -229.5 85t-94.5 220zM190 1139q0 -86 67 -146.5t153 -60.5t152.5 60.5t66.5 146.5q0 96 -61.5 151.5t-157.5 55.5q-94 0 -157 -56.5t-63 -150.5z" />
<glyph unicode="&#xb1;" horiz-adv-x="1228" d="M94 0v141h1039v-141h-1039zM94 551v141h449v346h141v-346h449v-141h-449v-346h-141v346h-449z" />
<glyph unicode="&#xb2;" d="M102 0v123l328 362q154 172 249 316.5t95 261.5q0 115 -71.5 186.5t-180.5 71.5q-92 0 -173 -25.5t-171 -76.5l-24 129q88 43 181 69.5t179 26.5q182 0 298 -94.5t116 -280.5q0 -109 -83 -260.5t-310 -402.5l-259 -283h685v-123h-859z" />
<glyph unicode="&#xb3;" d="M102 43l17 135q80 -39 168 -54t176 -15q150 0 258 74.5t108 226.5q0 164 -114.5 217t-276.5 53h-131v123h37q207 0 346 55t139 232q0 113 -99 172t-228 59q-80 0 -161 -19.5t-159 -56.5l-12 133q80 29 171 47.5t175 18.5q193 0 324 -88t131 -266q0 -129 -81 -219.5 t-216 -122.5q137 -2 217 -102.5t80 -248.5q0 -190 -146.5 -300.5t-369.5 -110.5q-98 0 -183.5 13t-169.5 44z" />
<glyph unicode="&#xb4;" horiz-adv-x="454" d="M109 1171l190 295h162l-258 -295h-94z" />
<glyph unicode="&#xb5;" d="M162 -430v1474h129v-634q0 -158 58.5 -241t189.5 -83q160 0 234.5 114.5t74.5 266.5v577h129v-798q0 -61 1 -118.5t7 -127.5h-125v186q-47 -94 -120.5 -152.5t-221.5 -58.5q-68 0 -120 13.5t-107 46.5v-465h-129z" />
<glyph unicode="&#xb6;" horiz-adv-x="1228" d="M98 1036q0 197 122 295.5t345 98.5h492v-1651h-129v1540h-275v-1540h-129v876q-182 0 -304 109.5t-122 271.5z" />
<glyph unicode="&#xb8;" horiz-adv-x="454" d="M14 -334l15 76q29 -20 81 -39.5t101 -19.5q47 0 76.5 19t29.5 56q0 76 -77 76q-47 0 -86 -8l59 174h55l-39 -111l68 7q66 0 107.5 -35t41.5 -99q0 -63 -51 -102t-174 -39q-55 0 -111.5 15.5t-95.5 29.5z" />
<glyph unicode="&#xb9;" d="M252 1159l323 271h127v-1430h-141v1270l-231 -203z" />
<glyph unicode="&#xba;" horiz-adv-x="739" d="M47 1122q0 143 81 237.5t243 94.5t241.5 -92t79.5 -240q0 -139 -81 -233t-240 -94q-160 0 -242 93t-82 234zM152 1122q0 -106 59 -173.5t160 -67.5q100 0 158.5 66.5t58.5 174.5q0 102 -59.5 174t-157.5 72q-100 0 -159.5 -71t-59.5 -175z" />
<glyph unicode="&#xbb;" d="M186 131l273 420l-273 420h121l287 -420l-287 -420h-121zM545 131l272 420l-272 420h121l286 -420l-286 -420h-121z" />
<glyph unicode="&#xbf;" horiz-adv-x="1024" d="M156 -43q0 141 90 260q84 96 168 195q92 121 92 256v30h129v-26q0 -158 -86 -279l-164 -188q-88 -115 -88 -248q0 -111 72.5 -177.5t185.5 -66.5q80 0 131 11.5t156 46.5l6 -129q-86 -25 -155.5 -38.5t-143.5 -13.5q-170 0 -281.5 92.5t-111.5 274.5zM485 872v172h166 v-172h-166z" />
<glyph unicode="&#xc0;" horiz-adv-x="1366" d="M27 0l585 1430h160l567 -1430h-147l-154 383h-721l-153 -383h-137zM371 506h620l-309 788zM449 1781h162l190 -295h-94z" />
<glyph unicode="&#xc1;" horiz-adv-x="1366" d="M27 0l585 1430h160l567 -1430h-147l-154 383h-721l-153 -383h-137zM371 506h620l-309 788zM566 1486l190 295h162l-258 -295h-94z" />
<glyph unicode="&#xc2;" horiz-adv-x="1366" d="M27 0l585 1430h160l567 -1430h-147l-154 383h-721l-153 -383h-137zM371 506h620l-309 788zM410 1486l190 295h168l191 -295h-94l-181 209l-180 -209h-94z" />
<glyph unicode="&#xc3;" horiz-adv-x="1366" d="M27 0l585 1430h160l567 -1430h-147l-154 383h-721l-153 -383h-137zM371 506h620l-309 788zM402 1534q16 76 57 130t109 54q35 0 53 -4t64 -19.5t65.5 -21.5t32.5 -6q35 0 62.5 17t37.5 52h76q-14 -98 -66.5 -139t-103.5 -41q-33 0 -57.5 6t-64.5 19.5t-62.5 19.5t-38.5 6 q-37 0 -56.5 -17.5t-34.5 -55.5h-73z" />
<glyph unicode="&#xc4;" horiz-adv-x="1366" d="M27 0l585 1430h160l567 -1430h-147l-154 383h-721l-153 -383h-137zM371 506h620l-309 788zM432 1552v172h154v-172h-154zM783 1552v172h153v-172h-153z" />
<glyph unicode="&#xc5;" horiz-adv-x="1366" d="M27 0l585 1430h160l567 -1430h-147l-154 383h-721l-153 -383h-137zM371 506h620l-309 788zM488 1671q0 82 56 138.5t140 56.5t140.5 -56.5t56.5 -138.5q0 -84 -55.5 -139t-141.5 -55t-141 55t-55 139zM561 1671q0 -51 37 -86t86 -35q53 0 88 33t35 88q0 51 -34.5 86 t-88.5 35q-49 0 -86 -35t-37 -86z" />
<glyph unicode="&#xc6;" horiz-adv-x="1820" d="M0 0l893 1430h780v-123h-555v-510h527v-123h-527v-551h580v-123h-719v383h-586l-237 -383h-156zM469 506h508v813z" />
<glyph unicode="&#xc7;" horiz-adv-x="1366" d="M117 715q0 330 196.5 534.5t524.5 204.5q90 0 181 -12t146 -41l-8 -131q-57 31 -148 46t-171 15q-272 0 -426 -171t-154 -445q0 -276 151.5 -446.5t428.5 -170.5q86 0 175 14.5t144 47.5l8 -123q-49 -31 -149.5 -46.5t-177.5 -15.5q-334 0 -527.5 202t-193.5 538z M563 -334l15 76q29 -20 81 -39.5t101 -19.5q47 0 76.5 19t29.5 56q0 76 -77 76q-47 0 -86 -8l59 174h55l-39 -111l68 7q66 0 107.5 -35t41.5 -99q0 -63 -51 -102t-174 -39q-55 0 -111.5 15.5t-95.5 29.5z" />
<glyph unicode="&#xc8;" horiz-adv-x="1024" d="M176 0v1430h701v-123h-560v-510h531v-123h-531v-551h584v-123h-725zM277 1781h162l190 -295h-94z" />
<glyph unicode="&#xc9;" horiz-adv-x="1024" d="M176 0v1430h701v-123h-560v-510h531v-123h-531v-551h584v-123h-725zM394 1486l190 295h162l-258 -295h-94z" />
<glyph unicode="&#xca;" horiz-adv-x="1024" d="M176 0v1430h701v-123h-560v-510h531v-123h-531v-551h584v-123h-725zM238 1486l190 295h168l191 -295h-94l-181 209l-180 -209h-94z" />
<glyph unicode="&#xcb;" horiz-adv-x="1024" d="M176 0v1430h701v-123h-560v-510h531v-123h-531v-551h584v-123h-725zM260 1552v172h154v-172h-154zM611 1552v172h153v-172h-153z" />
<glyph unicode="&#xcc;" horiz-adv-x="454" d="M158 0v1430h141v-1430h-141zM-8 1781h162l190 -295h-94z" />
<glyph unicode="&#xcd;" horiz-adv-x="454" d="M158 0v1430h141v-1430h-141zM109 1486l190 295h162l-258 -295h-94z" />
<glyph unicode="&#xce;" horiz-adv-x="454" d="M158 0v1430h141v-1430h-141zM-47 1486l190 295h168l191 -295h-94l-181 209l-180 -209h-94z" />
<glyph unicode="&#xcf;" horiz-adv-x="454" d="M158 0v1430h141v-1430h-141zM-25 1552v172h154v-172h-154zM326 1552v172h153v-172h-153z" />
<glyph unicode="&#xd1;" horiz-adv-x="1366" d="M158 0v1430h178l727 -1258l4 1258h141v-1430h-190l-715 1233l-4 -1233h-141zM402 1534q16 76 57 130t109 54q35 0 53 -4t64 -19.5t65.5 -21.5t32.5 -6q35 0 62.5 17t37.5 52h76q-14 -98 -66.5 -139t-103.5 -41q-33 0 -57.5 6t-64.5 19.5t-62.5 19.5t-38.5 6 q-37 0 -56.5 -17.5t-34.5 -55.5h-73z" />
<glyph unicode="&#xd2;" horiz-adv-x="1478" d="M111 715q0 313 160.5 526t467.5 213q305 0 467 -213t162 -526q0 -338 -163 -539t-466 -201t-465.5 201t-162.5 539zM252 715q0 -252 125 -434.5t362 -182.5q236 0 362 183.5t126 433.5q0 252 -125 434t-363 182q-236 0 -361.5 -183t-125.5 -433zM504 1781h162l190 -295 h-94z" />
<glyph unicode="&#xd3;" horiz-adv-x="1478" d="M111 715q0 313 160.5 526t467.5 213q305 0 467 -213t162 -526q0 -338 -163 -539t-466 -201t-465.5 201t-162.5 539zM252 715q0 -252 125 -434.5t362 -182.5q236 0 362 183.5t126 433.5q0 252 -125 434t-363 182q-236 0 -361.5 -183t-125.5 -433zM621 1486l190 295h162 l-258 -295h-94z" />
<glyph unicode="&#xd4;" horiz-adv-x="1478" d="M111 715q0 313 160.5 526t467.5 213q305 0 467 -213t162 -526q0 -338 -163 -539t-466 -201t-465.5 201t-162.5 539zM252 715q0 -252 125 -434.5t362 -182.5q236 0 362 183.5t126 433.5q0 252 -125 434t-363 182q-236 0 -361.5 -183t-125.5 -433zM465 1486l190 295h168 l191 -295h-94l-181 209l-180 -209h-94z" />
<glyph unicode="&#xd5;" horiz-adv-x="1478" d="M111 715q0 313 160.5 526t467.5 213q305 0 467 -213t162 -526q0 -338 -163 -539t-466 -201t-465.5 201t-162.5 539zM252 715q0 -252 125 -434.5t362 -182.5q236 0 362 183.5t126 433.5q0 252 -125 434t-363 182q-236 0 -361.5 -183t-125.5 -433zM457 1534q16 76 57 130 t109 54q35 0 53 -4t64 -19.5t65.5 -21.5t32.5 -6q35 0 62.5 17t37.5 52h76q-14 -98 -66.5 -139t-103.5 -41q-33 0 -57.5 6t-64.5 19.5t-62.5 19.5t-38.5 6q-37 0 -56.5 -17.5t-34.5 -55.5h-73z" />
<glyph unicode="&#xd6;" horiz-adv-x="1478" d="M111 715q0 313 160.5 526t467.5 213q305 0 467 -213t162 -526q0 -338 -163 -539t-466 -201t-465.5 201t-162.5 539zM252 715q0 -252 125 -434.5t362 -182.5q236 0 362 183.5t126 433.5q0 252 -125 434t-363 182q-236 0 -361.5 -183t-125.5 -433zM487 1552v172h154v-172 h-154zM838 1552v172h153v-172h-153z" />
<glyph unicode="&#xd8;" horiz-adv-x="1478" d="M59 23l181 206q-129 188 -129 486q0 313 160.5 526t467.5 213q135 0 239.5 -42t184.5 -124l176 201l80 -68l-186 -215q68 -96 101.5 -222t33.5 -269q0 -338 -163 -539t-466 -201q-141 0 -248.5 43t-185.5 127l-166 -190zM252 715q0 -102 20.5 -194.5t67.5 -174.5l731 836 q-61 72 -144 110.5t-188 38.5q-236 0 -361.5 -183t-125.5 -433zM401 254q61 -74 145.5 -115t192.5 -41q236 0 362 183.5t126 433.5q0 111 -21.5 201t-70.5 178z" />
<glyph unicode="&#xd9;" horiz-adv-x="1366" d="M166 500v930h141v-930q0 -182 97.5 -292t279.5 -110q180 0 278.5 110.5t98.5 291.5v930h141v-930q0 -283 -158.5 -404t-359.5 -121t-359.5 120t-158.5 405zM449 1781h162l190 -295h-94z" />
<glyph unicode="&#xda;" horiz-adv-x="1366" d="M166 500v930h141v-930q0 -182 97.5 -292t279.5 -110q180 0 278.5 110.5t98.5 291.5v930h141v-930q0 -283 -158.5 -404t-359.5 -121t-359.5 120t-158.5 405zM566 1486l190 295h162l-258 -295h-94z" />
<glyph unicode="&#xdb;" horiz-adv-x="1366" d="M166 500v930h141v-930q0 -182 97.5 -292t279.5 -110q180 0 278.5 110.5t98.5 291.5v930h141v-930q0 -283 -158.5 -404t-359.5 -121t-359.5 120t-158.5 405zM410 1486l190 295h168l191 -295h-94l-181 209l-180 -209h-94z" />
<glyph unicode="&#xdc;" horiz-adv-x="1366" d="M166 500v930h141v-930q0 -182 97.5 -292t279.5 -110q180 0 278.5 110.5t98.5 291.5v930h141v-930q0 -283 -158.5 -404t-359.5 -121t-359.5 120t-158.5 405zM432 1552v172h154v-172h-154zM783 1552v172h153v-172h-153z" />
<glyph unicode="&#xdd;" horiz-adv-x="1251" d="M580 1577l190 295h162l-258 -295h-94zM25 1430h163l437 -699l448 699h154l-531 -824v-606h-141v606z" />
<glyph unicode="&#xdf;" d="M162 0v1110q0 205 103.5 328t305.5 123q176 0 281.5 -103.5t105.5 -277.5q0 -139 -72.5 -233.5t-201.5 -123.5q168 -2 260 -107.5t92 -275.5q0 -201 -120.5 -327.5t-323.5 -126.5q-63 0 -100 5t-74 19l8 121q29 -16 76 -25.5t92 -9.5q141 0 221 94.5t80 247.5 q0 170 -100.5 242t-290.5 72h-21v110h37q131 0 214 85t83 229q0 121 -65.5 197.5t-180.5 76.5q-127 0 -203.5 -86t-76.5 -299v-1065h-129z" />
<glyph unicode="&#xe0;" horiz-adv-x="1024" d="M82 270q0 231 180 299t463 68h25v53q0 137 -55.5 202.5t-182.5 65.5q-172 0 -307 -86v125q63 31 148 51.5t159 20.5q195 0 281 -92t86 -297v-461q0 -57 1 -106.5t9 -112.5h-127v168q-45 -90 -138.5 -141.5t-197.5 -51.5q-195 0 -269.5 94.5t-74.5 200.5zM223 274 q0 -96 59.5 -142t157.5 -46q152 0 231 90t79 287v63h-37q-285 0 -387.5 -65.5t-102.5 -186.5zM277 1448h162l190 -295h-94z" />
<glyph unicode="&#xe1;" horiz-adv-x="1024" d="M82 270q0 231 180 299t463 68h25v53q0 137 -55.5 202.5t-182.5 65.5q-172 0 -307 -86v125q63 31 148 51.5t159 20.5q195 0 281 -92t86 -297v-461q0 -57 1 -106.5t9 -112.5h-127v168q-45 -90 -138.5 -141.5t-197.5 -51.5q-195 0 -269.5 94.5t-74.5 200.5zM223 274 q0 -96 59.5 -142t157.5 -46q152 0 231 90t79 287v63h-37q-285 0 -387.5 -65.5t-102.5 -186.5zM394 1153l190 295h162l-258 -295h-94z" />
<glyph unicode="&#xe2;" horiz-adv-x="1024" d="M82 270q0 231 180 299t463 68h25v53q0 137 -55.5 202.5t-182.5 65.5q-172 0 -307 -86v125q63 31 148 51.5t159 20.5q195 0 281 -92t86 -297v-461q0 -57 1 -106.5t9 -112.5h-127v168q-45 -90 -138.5 -141.5t-197.5 -51.5q-195 0 -269.5 94.5t-74.5 200.5zM223 274 q0 -96 59.5 -142t157.5 -46q152 0 231 90t79 287v63h-37q-285 0 -387.5 -65.5t-102.5 -186.5zM238 1153l190 295h168l191 -295h-94l-181 209l-180 -209h-94z" />
<glyph unicode="&#xe3;" horiz-adv-x="1024" d="M82 270q0 231 180 299t463 68h25v53q0 137 -55.5 202.5t-182.5 65.5q-172 0 -307 -86v125q63 31 148 51.5t159 20.5q195 0 281 -92t86 -297v-461q0 -57 1 -106.5t9 -112.5h-127v168q-45 -90 -138.5 -141.5t-197.5 -51.5q-195 0 -269.5 94.5t-74.5 200.5zM223 274 q0 -96 59.5 -142t157.5 -46q152 0 231 90t79 287v63h-37q-285 0 -387.5 -65.5t-102.5 -186.5zM230 1201q16 76 57 130t109 54q35 0 53 -4t64 -19.5t65.5 -21.5t32.5 -6q35 0 62.5 17t37.5 52h76q-14 -98 -66.5 -139t-103.5 -41q-33 0 -57.5 6t-64.5 19.5t-62.5 19.5t-38.5 6 q-37 0 -56.5 -17.5t-34.5 -55.5h-73z" />
<glyph unicode="&#xe4;" horiz-adv-x="1024" d="M82 270q0 231 180 299t463 68h25v53q0 137 -55.5 202.5t-182.5 65.5q-172 0 -307 -86v125q63 31 148 51.5t159 20.5q195 0 281 -92t86 -297v-461q0 -57 1 -106.5t9 -112.5h-127v168q-45 -90 -138.5 -141.5t-197.5 -51.5q-195 0 -269.5 94.5t-74.5 200.5zM223 274 q0 -96 59.5 -142t157.5 -46q152 0 231 90t79 287v63h-37q-285 0 -387.5 -65.5t-102.5 -186.5zM260 1219v172h154v-172h-154zM611 1219v172h153v-172h-153z" />
<glyph unicode="&#xe5;" horiz-adv-x="1024" d="M82 270q0 231 180 299t463 68h25v53q0 137 -55.5 202.5t-182.5 65.5q-172 0 -307 -86v125q63 31 148 51.5t159 20.5q195 0 281 -92t86 -297v-461q0 -57 1 -106.5t9 -112.5h-127v168q-45 -90 -138.5 -141.5t-197.5 -51.5q-195 0 -269.5 94.5t-74.5 200.5zM223 274 q0 -96 59.5 -142t157.5 -46q152 0 231 90t79 287v63h-37q-285 0 -387.5 -65.5t-102.5 -186.5zM316 1327q0 82 56 138.5t140 56.5t140.5 -56.5t56.5 -138.5q0 -84 -55.5 -139t-141.5 -55t-141 55t-55 139zM389 1327q0 -51 37 -86t86 -35q53 0 88 33t35 88q0 51 -34.5 86 t-88.5 35q-49 0 -86 -35t-37 -86z" />
<glyph unicode="&#xe6;" horiz-adv-x="1705" d="M94 254q0 217 169 279.5t409 62.5h90v55q0 147 -50 227t-186 80q-90 0 -161.5 -19t-147.5 -67v125q63 31 148.5 51.5t158.5 20.5q123 0 204 -42t130 -146q57 86 146.5 137t191.5 51q209 0 312.5 -145.5t103.5 -372.5v-66h-709v-47q0 -160 83 -256t255 -96q68 0 158 24.5 t135 53.5v-131q-68 -27 -146.5 -42.5t-156.5 -15.5q-156 0 -256.5 57.5t-140.5 153.5q-80 -117 -181.5 -164t-214.5 -47q-160 0 -252 71t-92 208zM236 254q0 -78 66.5 -123t150.5 -45q160 0 234.5 94t74.5 250v55h-45q-201 0 -341 -39.5t-140 -191.5zM903 596h567 q0 154 -64.5 258t-201.5 104q-131 0 -216 -109.5t-85 -252.5z" />
<glyph unicode="&#xe7;" horiz-adv-x="909" d="M84 522q0 242 142.5 394.5t373.5 152.5q88 0 139.5 -10t112.5 -31l-10 -123q-59 27 -113.5 40t-110.5 13q-184 0 -288.5 -120.5t-104.5 -315.5q0 -184 103.5 -310t275.5 -126q109 0 236 47l12 -121q-55 -20 -125 -28.5t-143 -8.5q-240 0 -370 158t-130 389zM333 -334 l15 76q29 -20 81 -39.5t101 -19.5q47 0 76.5 19t29.5 56q0 76 -77 76q-47 0 -86 -8l59 174h55l-39 -111l68 7q66 0 107.5 -35t41.5 -99q0 -63 -51 -102t-174 -39q-55 0 -111.5 15.5t-95.5 29.5z" />
<glyph unicode="&#xe8;" horiz-adv-x="1024" d="M84 522q0 242 122 394.5t318 152.5q209 0 312.5 -145.5t103.5 -372.5v-66h-715q0 -174 89 -286.5t255 -112.5q68 0 158 24.5t135 53.5v-131q-68 -27 -146.5 -42.5t-156.5 -15.5q-246 0 -360.5 148.5t-114.5 398.5zM225 596h574q0 154 -64.5 258t-202.5 104 q-135 0 -221 -111.5t-86 -250.5zM277 1448h162l190 -295h-94z" />
<glyph unicode="&#xe9;" horiz-adv-x="1024" d="M84 522q0 242 122 394.5t318 152.5q209 0 312.5 -145.5t103.5 -372.5v-66h-715q0 -174 89 -286.5t255 -112.5q68 0 158 24.5t135 53.5v-131q-68 -27 -146.5 -42.5t-156.5 -15.5q-246 0 -360.5 148.5t-114.5 398.5zM225 596h574q0 154 -64.5 258t-202.5 104 q-135 0 -221 -111.5t-86 -250.5zM394 1153l190 295h162l-258 -295h-94z" />
<glyph unicode="&#xea;" horiz-adv-x="1024" d="M84 522q0 242 122 394.5t318 152.5q209 0 312.5 -145.5t103.5 -372.5v-66h-715q0 -174 89 -286.5t255 -112.5q68 0 158 24.5t135 53.5v-131q-68 -27 -146.5 -42.5t-156.5 -15.5q-246 0 -360.5 148.5t-114.5 398.5zM225 596h574q0 154 -64.5 258t-202.5 104 q-135 0 -221 -111.5t-86 -250.5zM238 1153l190 295h168l191 -295h-94l-181 209l-180 -209h-94z" />
<glyph unicode="&#xeb;" horiz-adv-x="1024" d="M84 522q0 242 122 394.5t318 152.5q209 0 312.5 -145.5t103.5 -372.5v-66h-715q0 -174 89 -286.5t255 -112.5q68 0 158 24.5t135 53.5v-131q-68 -27 -146.5 -42.5t-156.5 -15.5q-246 0 -360.5 148.5t-114.5 398.5zM225 596h574q0 154 -64.5 258t-202.5 104 q-135 0 -221 -111.5t-86 -250.5zM260 1219v172h154v-172h-154zM611 1219v172h153v-172h-153z" />
<glyph unicode="&#xec;" horiz-adv-x="454" d="M162 0v1044h129v-1044h-129zM-8 1448h162l190 -295h-94z" />
<glyph unicode="&#xed;" horiz-adv-x="454" d="M162 0v1044h129v-1044h-129zM109 1153l190 295h162l-258 -295h-94z" />
<glyph unicode="&#xee;" horiz-adv-x="454" d="M162 0v1044h129v-1044h-129zM-47 1153l190 295h168l191 -295h-94l-181 209l-180 -209h-94z" />
<glyph unicode="&#xef;" horiz-adv-x="454" d="M162 0v1044h129v-1044h-129zM-25 1219v172h154v-172h-154zM326 1219v172h153v-172h-153z" />
<glyph unicode="&#xf1;" d="M154 1044h125v-186q47 94 120.5 152.5t221.5 58.5q182 0 269 -108.5t87 -292.5v-668h-129v635q0 158 -58.5 240.5t-189.5 82.5q-160 0 -234.5 -114.5t-74.5 -265.5v-578h-129v799v61v113q-6 48 -8 71zM287 1201q16 76 57 130t109 54q35 0 53 -4t64 -19.5t65.5 -21.5 t32.5 -6q35 0 62.5 17t37.5 52h76q-14 -98 -66.5 -139t-103.5 -41q-33 0 -57.5 6t-64.5 19.5t-62.5 19.5t-38.5 6q-37 0 -56.5 -17.5t-34.5 -55.5h-73z" />
<glyph unicode="&#xf2;" d="M82 522q0 231 124 389t363 158q240 0 364 -156.5t124 -390.5q0 -231 -124 -389t-364 -158t-363.5 157t-123.5 390zM223 522q0 -190 91.5 -313t254.5 -123q164 0 255 123t91 313t-91 313t-255 123t-255 -123t-91 -313zM334 1448h162l190 -295h-94z" />
<glyph unicode="&#xf3;" d="M82 522q0 231 124 389t363 158q240 0 364 -156.5t124 -390.5q0 -231 -124 -389t-364 -158t-363.5 157t-123.5 390zM223 522q0 -190 91.5 -313t254.5 -123q164 0 255 123t91 313t-91 313t-255 123t-255 -123t-91 -313zM451 1153l190 295h162l-258 -295h-94z" />
<glyph unicode="&#xf4;" d="M82 522q0 231 124 389t363 158q240 0 364 -156.5t124 -390.5q0 -231 -124 -389t-364 -158t-363.5 157t-123.5 390zM223 522q0 -190 91.5 -313t254.5 -123q164 0 255 123t91 313t-91 313t-255 123t-255 -123t-91 -313zM295 1153l190 295h168l191 -295h-94l-181 209 l-180 -209h-94z" />
<glyph unicode="&#xf5;" d="M82 522q0 231 124 389t363 158q240 0 364 -156.5t124 -390.5q0 -231 -124 -389t-364 -158t-363.5 157t-123.5 390zM223 522q0 -190 91.5 -313t254.5 -123q164 0 255 123t91 313t-91 313t-255 123t-255 -123t-91 -313zM287 1201q16 76 57 130t109 54q35 0 53 -4t64 -19.5 t65.5 -21.5t32.5 -6q35 0 62.5 17t37.5 52h76q-14 -98 -66.5 -139t-103.5 -41q-33 0 -57.5 6t-64.5 19.5t-62.5 19.5t-38.5 6q-37 0 -56.5 -17.5t-34.5 -55.5h-73z" />
<glyph unicode="&#xf6;" d="M82 522q0 231 124 389t363 158q240 0 364 -156.5t124 -390.5q0 -231 -124 -389t-364 -158t-363.5 157t-123.5 390zM223 522q0 -190 91.5 -313t254.5 -123q164 0 255 123t91 313t-91 313t-255 123t-255 -123t-91 -313zM317 1219v172h154v-172h-154zM668 1219v172h153v-172 h-153z" />
<glyph unicode="&#xf7;" horiz-adv-x="1228" d="M94 449v141h1039v-141h-1039zM483 117q0 53 39 92t92 39t92 -39t39 -92q0 -49 -38.5 -90t-92.5 -41q-53 0 -92 39t-39 92zM483 922q0 53 39 92t92 39t92 -39t39 -92q0 -49 -38.5 -90t-92.5 -41q-53 0 -92 39t-39 92z" />
<glyph unicode="&#xf8;" d="M39 -23l154 177q-57 74 -84 168t-27 200q0 231 124 389t363 158q102 0 183.5 -29.5t136.5 -85.5l139 162l72 -59l-150 -172q53 -68 80 -164t27 -199q0 -231 -124 -389t-364 -158q-98 0 -177 28t-138 81l-143 -166zM223 522q0 -152 62 -262l520 598q-94 100 -236 100 q-164 0 -255 -123t-91 -313zM340 182q90 -96 229 -96q164 0 255 123t91 313q0 150 -57 256z" />
<glyph unicode="&#xf9;" d="M162 377v667h129v-634q0 -158 58.5 -241t189.5 -83q160 0 234.5 114.5t74.5 266.5v577h129v-798q0 -61 1 -118.5t7 -127.5h-125v186q-47 -94 -120.5 -152.5t-221.5 -58.5q-182 0 -269 109t-87 293zM334 1448h162l190 -295h-94z" />
<glyph unicode="&#xfa;" d="M162 377v667h129v-634q0 -158 58.5 -241t189.5 -83q160 0 234.5 114.5t74.5 266.5v577h129v-798q0 -61 1 -118.5t7 -127.5h-125v186q-47 -94 -120.5 -152.5t-221.5 -58.5q-182 0 -269 109t-87 293zM451 1153l190 295h162l-258 -295h-94z" />
<glyph unicode="&#xfb;" d="M162 377v667h129v-634q0 -158 58.5 -241t189.5 -83q160 0 234.5 114.5t74.5 266.5v577h129v-798q0 -61 1 -118.5t7 -127.5h-125v186q-47 -94 -120.5 -152.5t-221.5 -58.5q-182 0 -269 109t-87 293zM295 1153l190 295h168l191 -295h-94l-181 209l-180 -209h-94z" />
<glyph unicode="&#xfc;" d="M162 377v667h129v-634q0 -158 58.5 -241t189.5 -83q160 0 234.5 114.5t74.5 266.5v577h129v-798q0 -61 1 -118.5t7 -127.5h-125v186q-47 -94 -120.5 -152.5t-221.5 -58.5q-182 0 -269 109t-87 293zM317 1219v172h154v-172h-154zM668 1219v172h153v-172h-153z" />
<glyph unicode="&#xfd;" horiz-adv-x="909" d="M408 1191l190 295h162l-258 -295h-94zM18 1044h142l293 -872l2 2l301 870h135l-418 -1200q-45 -133 -106.5 -209.5t-161.5 -76.5q-70 0 -139 16l12 111q18 -6 43.5 -11.5t52.5 -5.5q78 0 115 52.5t73 175.5l27 92z" />
<glyph unicode="&#xff;" horiz-adv-x="909" d="M18 1044h142l293 -872l2 2l301 870h135l-418 -1200q-45 -133 -106.5 -209.5t-161.5 -76.5q-70 0 -139 16l12 111q18 -6 43.5 -11.5t52.5 -5.5q78 0 115 52.5t73 175.5l27 92zM202 1219v172h154v-172h-154zM553 1219v172h153v-172h-153z" />
<glyph unicode="&#x131;" horiz-adv-x="454" d="M162 0v1044h129v-1044h-129z" />
<glyph unicode="&#x152;" horiz-adv-x="1820" d="M111 715q0 305 140 517t427 212q59 0 180 -7t164 -7h651v-123h-555v-510h527v-123h-527v-551h580v-123h-676q-59 0 -180 -7t-164 -7q-285 0 -426 214t-141 515zM252 715q0 -303 124 -453.5t341 -150.5q57 0 141 6t119 6v1184q-33 0 -117 6t-143 6q-213 0 -339 -151.5 t-126 -452.5z" />
<glyph unicode="&#x153;" horiz-adv-x="1820" d="M74 522q0 231 124 389t363 158q141 0 239.5 -53t153.5 -172q57 113 150.5 169t224.5 56q207 0 311.5 -147.5t104.5 -366.5v-70h-715q0 -174 89 -286.5t255 -112.5q68 0 158 24.5t135 53.5v-131q-68 -27 -146.5 -42.5t-156.5 -15.5q-150 0 -248 55.5t-153 157.5 q-57 -100 -157.5 -156.5t-244.5 -56.5q-240 0 -363.5 157t-123.5 390zM215 522q0 -190 91 -313t255 -123q178 0 253 118t75 318q0 193 -74 314.5t-254 121.5q-164 0 -255 -123t-91 -313zM1030 596h574q0 150 -70 256t-197 106q-145 0 -226 -99t-81 -263z" />
<glyph unicode="&#x178;" horiz-adv-x="1251" d="M25 1430h163l437 -699l448 699h154l-531 -824v-606h-141v606zM374 1552v172h154v-172h-154zM725 1552v172h153v-172h-153z" />
<glyph unicode="&#x2c6;" horiz-adv-x="1228" d="M102 543l447 887h131l446 -887h-145l-367 745l-366 -745h-146z" />
<glyph unicode="&#x2c9;" horiz-adv-x="454" d="M-23 1257v111h500v-111h-500z" />
<glyph unicode="&#x2da;" horiz-adv-x="454" d="M31 1327q0 82 56 138.5t140 56.5t140.5 -56.5t56.5 -138.5q0 -84 -55.5 -139t-141.5 -55t-141 55t-55 139zM104 1327q0 -51 37 -86t86 -35q53 0 88 33t35 88q0 51 -34.5 86t-88.5 35q-49 0 -86 -35t-37 -86z" />
<glyph unicode="&#x2dc;" horiz-adv-x="569" d="M-278 123q16 76 57 130t109 54q35 0 53 -4t64 -19.5t65.5 -21.5t32.5 -6q35 0 62.5 17t37.5 52h76q-14 -98 -66.5 -139t-103.5 -41q-33 0 -57.5 6t-64.5 19.5t-62.5 19.5t-38.5 6q-37 0 -56.5 -17.5t-34.5 -55.5h-73z" />
<glyph unicode="&#x302;" horiz-adv-x="454" d="M-47 1171l190 295h168l191 -295h-94l-181 209l-180 -209h-94z" />
<glyph unicode="&#x303;" horiz-adv-x="454" d="M-55 1219q16 76 57 130t109 54q35 0 53 -4t64 -19.5t65.5 -21.5t32.5 -6q35 0 62.5 17t37.5 52h76q-14 -98 -66.5 -139t-103.5 -41q-33 0 -57.5 6t-64.5 19.5t-62.5 19.5t-38.5 6q-37 0 -56.5 -17.5t-34.5 -55.5h-73z" />
<glyph unicode="&#x2000;" horiz-adv-x="935" />
<glyph unicode="&#x2001;" horiz-adv-x="1871" />
<glyph unicode="&#x2002;" horiz-adv-x="935" />
<glyph unicode="&#x2003;" horiz-adv-x="1871" />
<glyph unicode="&#x2004;" horiz-adv-x="622" />
<glyph unicode="&#x2005;" horiz-adv-x="466" />
<glyph unicode="&#x2006;" horiz-adv-x="311" />
<glyph unicode="&#x2007;" horiz-adv-x="311" />
<glyph unicode="&#x2008;" horiz-adv-x="233" />
<glyph unicode="&#x2009;" horiz-adv-x="372" />
<glyph unicode="&#x200a;" horiz-adv-x="102" />
<glyph unicode="&#x2010;" horiz-adv-x="681" d="M84 481v142h514v-142h-514z" />
<glyph unicode="&#x2011;" horiz-adv-x="681" d="M84 481v142h514v-142h-514z" />
<glyph unicode="&#x2012;" horiz-adv-x="681" d="M84 481v142h514v-142h-514z" />
<glyph unicode="&#x2013;" horiz-adv-x="1024" d="M0 496v110h1024v-110h-1024z" />
<glyph unicode="&#x2014;" horiz-adv-x="2048" d="M0 496v110h2048v-110h-2048z" />
<glyph unicode="&#x2018;" horiz-adv-x="569" d="M147 983l158 447h117l-121 -447h-154z" />
<glyph unicode="&#x2019;" horiz-adv-x="569" d="M147 983l121 447h154l-158 -447h-117z" />
<glyph unicode="&#x201a;" horiz-adv-x="569" d="M147 -274l121 446h154l-158 -446h-117z" />
<glyph unicode="&#x201c;" d="M252 983l158 447h116l-120 -447h-154zM612 983l158 447h117l-121 -447h-154z" />
<glyph unicode="&#x201d;" d="M252 983l121 447h153l-157 -447h-117zM612 983l121 447h154l-158 -447h-117z" />
<glyph unicode="&#x201e;" d="M252 -274l121 446h153l-155 -446h-119zM612 -274l121 446h154l-158 -446h-117z" />
<glyph unicode="&#x2022;" horiz-adv-x="1024" d="M156 715q0 145 104.5 251.5t251.5 106.5t252.5 -105.5t105.5 -252.5t-104 -252t-254 -105q-147 0 -251.5 105t-104.5 252z" />
<glyph unicode="&#x2026;" horiz-adv-x="2048" d="M260 0v172h166v-172h-166zM942 0v172h166v-172h-166zM1624 0v172h166v-172h-166z" />
<glyph unicode="&#x202f;" horiz-adv-x="372" />
<glyph unicode="&#x2039;" horiz-adv-x="569" d="M80 551l287 420h120l-272 -420l272 -420h-120z" />
<glyph unicode="&#x203a;" horiz-adv-x="569" d="M82 131l272 420l-272 420h121l286 -420l-286 -420h-121z" />
<glyph unicode="&#x205f;" horiz-adv-x="466" />
<glyph unicode="&#x2122;" horiz-adv-x="2027" d="M131 1331v99h666v-99h-269v-749h-129v749h-268zM979 582v848h209l250 -654l250 654h208v-848h-129v737l-286 -737h-88l-281 737l-4 -737h-129z" />
<glyph unicode="&#xe000;" horiz-adv-x="1045" d="M0 1045h1045v-1045h-1045v1045z" />
<glyph unicode="&#xfb01;" horiz-adv-x="1136" d="M844 0v1044h129v-1044h-129zM844 1323v172h129v-172h-129zM39 934v110h211v76q0 217 48 329t228 112q37 0 70 -4.5t51 -16.5l-8 -113q-41 23 -102 23q-100 0 -129 -69.5t-29 -188.5v-57v-91h235v-110h-235v-934h-129v934h-211z" />
<glyph unicode="&#xfb02;" horiz-adv-x="1136" d="M844 0v1536h129v-1536h-129zM39 934v110h211v76q0 217 48 329t228 112q37 0 70 -4.5t51 -16.5l-8 -113q-41 23 -102 23q-100 0 -129 -69.5t-29 -188.5v-57v-91h235v-110h-235v-934h-129v934h-211z" />
<glyph unicode="&#xfb03;" horiz-adv-x="1818" d="M1526 0v1044h129v-1044h-129zM1526 1323v172h129v-172h-129zM721 934v110h211v76q0 217 48 329t228 112q37 0 70 -4.5t51 -16.5l-8 -113q-41 23 -102 23q-100 0 -129 -69.5t-29 -188.5v-57v-91h235v-110h-235v-934h-129v934h-211zM39 934v110h211v76q0 217 48 329 t228 112q37 0 70 -4.5t51 -16.5l-8 -113q-41 23 -102 23q-100 0 -129 -69.5t-29 -188.5v-57v-91h235v-110h-235v-934h-129v934h-211z" />
<glyph unicode="&#xfb04;" horiz-adv-x="1818" d="M1526 0v1536h129v-1536h-129zM721 934v110h211v76q0 217 48 329t228 112q37 0 70 -4.5t51 -16.5l-8 -113q-41 23 -102 23q-100 0 -129 -69.5t-29 -188.5v-57v-91h235v-110h-235v-934h-129v934h-211zM39 934v110h211v76q0 217 48 329t228 112q37 0 70 -4.5t51 -16.5 l-8 -113q-41 23 -102 23q-100 0 -129 -69.5t-29 -188.5v-57v-91h235v-110h-235v-934h-129v934h-211z" />
</font>
</defs>
</svg>
